<svg xmlns="http://www.w3.org/2000/svg" xmlns:xlink="http://www.w3.org/1999/xlink" width="500" zoomAndPan="magnify" viewBox="0 0 375 374.999991" height="500" preserveAspectRatio="xMidYMid meet" version="1.0"><defs><clipPath id="c21edbb595"><path d="M 187.5 0 C 83.945312 0 0 83.945312 0 187.5 C 0 291.054688 83.945312 375 187.5 375 C 291.054688 375 375 291.054688 375 187.5 C 375 83.945312 291.054688 0 187.5 0 " clip-rule="nonzero"/></clipPath><clipPath id="59fe0b3ea0"><path d="M 70.507812 53.222656 L 310.6875 53.222656 L 310.6875 293.402344 L 70.507812 293.402344 Z M 70.507812 53.222656 " clip-rule="nonzero"/></clipPath><clipPath id="6ae4d8607c"><path d="M 136.625 63.308594 L 184.121094 63.308594 L 184.121094 109 L 136.625 109 Z M 136.625 63.308594 " clip-rule="nonzero"/></clipPath><clipPath id="f5f74ded74"><path d="M 253.691406 118.132812 L 301.1875 118.132812 L 301.1875 163.835938 L 253.691406 163.835938 Z M 253.691406 118.132812 " clip-rule="nonzero"/></clipPath><clipPath id="1ea2f17eed"><path d="M 78.886719 181 L 126.386719 181 L 126.386719 226 L 78.886719 226 Z M 78.886719 181 " clip-rule="nonzero"/></clipPath><clipPath id="564c671d7a"><path d="M 57.453125 182.046875 L 211.953125 182.046875 L 211.953125 327.503906 L 57.453125 327.503906 Z M 57.453125 182.046875 " clip-rule="nonzero"/></clipPath><clipPath id="148988e53d"><path d="M 123.617188 197.5 L 211.953125 197.5 L 211.953125 327.503906 L 123.617188 327.503906 Z M 123.617188 197.5 " clip-rule="nonzero"/></clipPath><clipPath id="17ca9d2720"><path d="M 73.816406 188.535156 L 211.953125 188.535156 L 211.953125 326.996094 L 73.816406 326.996094 Z M 73.816406 188.535156 " clip-rule="nonzero"/></clipPath><clipPath id="1ce4de6a0c"><path d="M 57.453125 188 L 174 188 L 174 316 L 57.453125 316 Z M 57.453125 188 " clip-rule="nonzero"/></clipPath><clipPath id="300136f33f"><path d="M 179 223 L 231 223 L 231 275 L 179 275 Z M 179 223 " clip-rule="nonzero"/></clipPath><clipPath id="63ea4a5181"><path d="M 177.535156 230.203125 L 226.539062 219.085938 L 237.15625 265.898438 L 188.148438 277.011719 Z M 177.535156 230.203125 " clip-rule="nonzero"/></clipPath><clipPath id="9ad0c881d8"><path d="M 177.535156 230.203125 L 226.539062 219.085938 L 237.15625 265.898438 L 188.148438 277.011719 Z M 177.535156 230.203125 " clip-rule="nonzero"/></clipPath></defs><g clip-path="url(#c21edbb595)"><rect x="-37.5" width="450" fill="#ffffff" y="-37.499999" height="449.999989" fill-opacity="1"/><path stroke-linecap="butt" transform="matrix(0.75, 0, 0, 0.75, 0.0000045, 0)" fill="none" stroke-linejoin="miter" d="M 249.999994 0 C 111.927078 0 -0.000006 111.927084 -0.000006 250 C -0.000006 388.072917 111.927078 500.000001 249.999994 500.000001 C 388.072911 500.000001 499.999995 388.072917 499.999995 250 C 499.999995 111.927084 388.072911 0 249.999994 0 " stroke="#000000" stroke-width="2" stroke-opacity="1" stroke-miterlimit="4"/></g><path fill="#ffffff" d="M 248.695312 231.410156 L 248.695312 173.320312 L 306.785156 173.320312 L 306.785156 231.410156 Z M 306.78125 57.128906 L 248.691406 57.128906 L 248.691406 115.230469 L 306.78125 115.230469 Z M 190.605469 289.5 L 248.695312 289.5 L 248.695312 231.410156 L 190.605469 231.410156 Z M 190.605469 115.230469 L 190.605469 173.320312 L 248.695312 173.320312 L 248.695312 115.230469 Z M 132.503906 173.320312 L 132.503906 231.410156 L 190.605469 231.410156 L 190.605469 173.320312 Z M 190.605469 57.128906 L 132.503906 57.128906 L 132.503906 115.230469 L 190.605469 115.230469 Z M 74.414062 289.5 L 132.503906 289.5 L 132.503906 231.410156 L 74.414062 231.410156 Z M 74.414062 115.230469 L 74.414062 173.320312 L 132.503906 173.320312 L 132.503906 115.230469 Z M 74.414062 115.230469 " fill-opacity="1" fill-rule="nonzero"/><g clip-path="url(#59fe0b3ea0)"><path fill="#000000" d="M 306.78125 53.222656 L 74.414062 53.222656 C 72.257812 53.222656 70.507812 54.972656 70.507812 57.128906 L 70.507812 289.5 C 70.507812 291.65625 72.257812 293.40625 74.414062 293.40625 L 306.78125 293.40625 C 308.941406 293.40625 310.6875 291.65625 310.6875 289.5 L 310.6875 57.128906 C 310.6875 54.972656 308.941406 53.222656 306.78125 53.222656 Z M 78.316406 119.136719 L 128.597656 119.136719 L 128.597656 169.414062 L 78.316406 169.414062 Z M 244.789062 169.414062 L 194.507812 169.414062 L 194.507812 119.136719 L 244.789062 119.136719 Z M 136.410156 177.222656 L 186.699219 177.222656 L 186.699219 227.503906 L 136.410156 227.503906 Z M 186.699219 111.324219 L 136.410156 111.324219 L 136.410156 61.035156 L 186.699219 61.035156 Z M 194.507812 235.316406 L 244.789062 235.316406 L 244.789062 285.59375 L 194.507812 285.59375 Z M 252.597656 227.503906 L 252.597656 177.222656 L 302.878906 177.222656 L 302.878906 227.503906 Z M 302.878906 111.324219 L 252.597656 111.324219 L 252.597656 61.035156 L 302.878906 61.035156 Z M 78.316406 235.316406 L 128.597656 235.316406 L 128.597656 285.59375 L 78.316406 285.59375 Z M 78.316406 235.316406 " fill-opacity="1" fill-rule="nonzero"/></g><g clip-path="url(#6ae4d8607c)"><path fill="#3084b2" d="M 178.699219 94.292969 C 177.867188 96.761719 176.640625 99.007812 175.023438 101.039062 L 145.726562 101.039062 C 144.109375 99.007812 142.882812 96.761719 142.046875 94.292969 C 148.082031 92.933594 154.191406 92.253906 160.375 92.253906 C 166.558594 92.253906 172.667969 92.933594 178.699219 94.292969 Z M 171.15625 81.894531 L 171.15625 81.957031 C 172.347656 84.214844 173.75 86.332031 175.359375 88.3125 C 175.433594 88.390625 175.472656 88.484375 175.472656 88.59375 C 175.472656 88.703125 175.433594 88.792969 175.359375 88.871094 C 175.285156 88.9375 175.203125 88.96875 175.105469 88.96875 C 174.980469 88.964844 174.878906 88.917969 174.800781 88.820312 L 174.601562 88.566406 C 173.0625 86.644531 171.71875 84.59375 170.566406 82.414062 L 170.503906 82.296875 C 168.785156 79.039062 167.511719 75.617188 166.679688 72.023438 C 165.546875 77.089844 163.539062 81.773438 160.65625 86.078125 C 160.621094 86.128906 160.574219 86.171875 160.515625 86.203125 C 160.457031 86.230469 160.398438 86.246094 160.332031 86.246094 C 160.265625 86.246094 160.207031 86.230469 160.148438 86.203125 C 160.089844 86.171875 160.042969 86.128906 160.007812 86.078125 C 157.152344 81.765625 155.175781 77.082031 154.070312 72.023438 C 153.257812 75.625 152 79.058594 150.296875 82.328125 C 149.140625 84.542969 147.78125 86.621094 146.21875 88.566406 L 146.019531 88.820312 C 145.945312 88.886719 145.859375 88.921875 145.757812 88.925781 C 145.660156 88.929688 145.570312 88.898438 145.496094 88.832031 C 145.417969 88.769531 145.371094 88.6875 145.355469 88.589844 C 145.339844 88.488281 145.355469 88.398438 145.410156 88.3125 C 147.019531 86.332031 148.417969 84.214844 149.613281 81.957031 L 149.613281 81.894531 C 146.492188 79.460938 143.773438 76.636719 141.449219 73.421875 C 142.359375 76.640625 142.867188 79.921875 142.96875 83.265625 C 143.070312 86.609375 142.761719 89.914062 142.046875 93.183594 C 148.089844 91.839844 154.207031 91.167969 160.394531 91.167969 C 166.582031 91.167969 172.699219 91.839844 178.742188 93.183594 C 178.023438 89.925781 177.707031 86.625 177.800781 83.289062 C 177.894531 79.953125 178.390625 76.675781 179.289062 73.464844 C 176.972656 76.660156 174.261719 79.46875 171.15625 81.894531 Z M 175.023438 102.097656 L 145.726562 102.097656 C 145.292969 102.101562 144.875 102.183594 144.476562 102.351562 C 144.074219 102.519531 143.722656 102.753906 143.414062 103.0625 C 143.105469 103.367188 142.867188 103.722656 142.699219 104.125 C 142.527344 104.527344 142.441406 104.945312 142.4375 105.382812 C 142.4375 105.820312 142.519531 106.246094 142.6875 106.652344 C 142.851562 107.058594 143.089844 107.414062 143.398438 107.726562 C 143.707031 108.035156 144.0625 108.277344 144.464844 108.445312 C 144.871094 108.613281 145.289062 108.695312 145.726562 108.695312 L 175.023438 108.695312 C 175.457031 108.695312 175.878906 108.609375 176.28125 108.441406 C 176.683594 108.273438 177.039062 108.035156 177.34375 107.722656 C 177.652344 107.414062 177.890625 107.054688 178.058594 106.648438 C 178.226562 106.242188 178.308594 105.820312 178.3125 105.382812 C 178.308594 104.945312 178.222656 104.527344 178.050781 104.125 C 177.882812 103.722656 177.644531 103.367188 177.335938 103.058594 C 177.03125 102.75 176.675781 102.515625 176.273438 102.347656 C 175.875 102.183594 175.457031 102.097656 175.023438 102.097656 Z M 166.679688 70.097656 C 167.085938 70.097656 167.476562 70.019531 167.851562 69.863281 C 168.230469 69.703125 168.5625 69.480469 168.847656 69.191406 C 169.136719 68.902344 169.359375 68.566406 169.515625 68.1875 C 169.667969 67.808594 169.746094 67.414062 169.746094 67.003906 C 169.746094 66.59375 169.667969 66.199219 169.515625 65.820312 C 169.359375 65.441406 169.136719 65.109375 168.847656 64.820312 C 168.5625 64.527344 168.230469 64.304688 167.851562 64.148438 C 167.476562 63.992188 167.085938 63.914062 166.679688 63.914062 C 166.273438 63.914062 165.878906 63.992188 165.503906 64.148438 C 165.128906 64.304688 164.796875 64.527344 164.507812 64.820312 C 164.222656 65.109375 164 65.441406 163.84375 65.820312 C 163.6875 66.199219 163.609375 66.59375 163.609375 67.003906 C 163.609375 67.414062 163.6875 67.808594 163.84375 68.1875 C 164 68.566406 164.222656 68.902344 164.507812 69.191406 C 164.796875 69.480469 165.128906 69.703125 165.503906 69.863281 C 165.878906 70.019531 166.273438 70.097656 166.679688 70.097656 Z M 154.070312 70.097656 C 154.472656 70.085938 154.859375 69.996094 155.230469 69.832031 C 155.597656 69.667969 155.925781 69.4375 156.203125 69.140625 C 156.484375 68.847656 156.695312 68.511719 156.84375 68.132812 C 156.988281 67.75 157.058594 67.359375 157.050781 66.949219 C 157.046875 66.542969 156.960938 66.152344 156.800781 65.777344 C 156.640625 65.402344 156.414062 65.074219 156.125 64.789062 C 155.835938 64.507812 155.503906 64.289062 155.128906 64.136719 C 154.75 63.984375 154.363281 63.910156 153.957031 63.914062 C 153.554688 63.917969 153.164062 64 152.792969 64.15625 C 152.417969 64.316406 152.089844 64.539062 151.804688 64.828125 C 151.519531 65.117188 151.300781 65.453125 151.148438 65.828125 C 150.992188 66.207031 150.917969 66.597656 150.917969 67.003906 C 150.917969 67.421875 150.996094 67.824219 151.15625 68.207031 C 151.320312 68.59375 151.546875 68.929688 151.84375 69.222656 C 152.140625 69.511719 152.484375 69.734375 152.867188 69.886719 C 153.253906 70.039062 153.65625 70.109375 154.070312 70.097656 Z M 142.792969 70.550781 C 142.796875 70.144531 142.722656 69.746094 142.570312 69.367188 C 142.417969 68.988281 142.203125 68.648438 141.917969 68.355469 C 141.632812 68.0625 141.300781 67.835938 140.929688 67.675781 C 140.554688 67.515625 140.164062 67.433594 139.757812 67.429688 C 139.347656 67.425781 138.957031 67.5 138.578125 67.652344 C 138.203125 67.804688 137.867188 68.023438 137.578125 68.3125 C 137.285156 68.597656 137.0625 68.929688 136.902344 69.308594 C 136.742188 69.6875 136.660156 70.078125 136.65625 70.488281 C 136.652344 70.898438 136.726562 71.292969 136.878906 71.675781 C 137.03125 72.054688 137.25 72.390625 137.53125 72.683594 C 137.816406 72.976562 138.148438 73.203125 138.519531 73.367188 C 138.894531 73.527344 139.285156 73.609375 139.691406 73.613281 C 140.097656 73.613281 140.484375 73.535156 140.859375 73.378906 C 141.230469 73.226562 141.5625 73.003906 141.847656 72.71875 C 142.132812 72.429688 142.355469 72.101562 142.511719 71.726562 C 142.667969 71.351562 142.75 70.960938 142.75 70.550781 Z M 181.097656 67.460938 C 180.691406 67.460938 180.296875 67.539062 179.921875 67.695312 C 179.546875 67.851562 179.214844 68.074219 178.925781 68.367188 C 178.640625 68.65625 178.417969 68.992188 178.261719 69.371094 C 178.105469 69.75 178.027344 70.140625 178.027344 70.550781 C 178.027344 70.960938 178.105469 71.355469 178.261719 71.734375 C 178.417969 72.113281 178.640625 72.449219 178.925781 72.738281 C 179.214844 73.027344 179.546875 73.253906 179.921875 73.410156 C 180.296875 73.566406 180.691406 73.644531 181.097656 73.644531 C 181.503906 73.644531 181.894531 73.566406 182.269531 73.410156 C 182.648438 73.253906 182.976562 73.027344 183.265625 72.738281 C 183.554688 72.449219 183.777344 72.113281 183.929688 71.734375 C 184.085938 71.355469 184.164062 70.960938 184.164062 70.550781 C 184.167969 70.136719 184.089844 69.738281 183.929688 69.359375 C 183.773438 68.976562 183.546875 68.636719 183.253906 68.347656 C 182.960938 68.058594 182.625 67.835938 182.242188 67.679688 C 181.863281 67.527344 181.464844 67.453125 181.054688 67.460938 Z M 181.097656 67.460938 " fill-opacity="1" fill-rule="nonzero"/></g><g clip-path="url(#f5f74ded74)"><path fill="#3084b2" d="M 295.765625 149.117188 C 294.933594 151.582031 293.707031 153.832031 292.089844 155.863281 L 262.792969 155.863281 C 261.175781 153.832031 259.949219 151.582031 259.113281 149.117188 C 265.148438 147.757812 271.257812 147.074219 277.441406 147.074219 C 283.625 147.074219 289.734375 147.757812 295.765625 149.117188 Z M 288.222656 136.714844 L 288.222656 136.78125 C 289.414062 139.039062 290.816406 141.15625 292.425781 143.132812 C 292.5 143.210938 292.539062 143.304688 292.539062 143.414062 C 292.539062 143.523438 292.5 143.617188 292.425781 143.695312 C 292.351562 143.757812 292.269531 143.789062 292.171875 143.789062 C 292.046875 143.789062 291.945312 143.738281 291.867188 143.640625 L 291.667969 143.386719 C 290.128906 141.464844 288.785156 139.414062 287.632812 137.234375 L 287.570312 137.117188 C 285.851562 133.863281 284.578125 130.4375 283.746094 126.847656 C 282.613281 131.910156 280.605469 136.597656 277.722656 140.898438 C 277.6875 140.953125 277.640625 140.996094 277.582031 141.023438 C 277.523438 141.054688 277.464844 141.070312 277.398438 141.070312 C 277.332031 141.070312 277.273438 141.054688 277.214844 141.023438 C 277.15625 140.996094 277.109375 140.953125 277.074219 140.898438 C 274.21875 136.589844 272.242188 131.90625 271.136719 126.847656 C 270.324219 130.445312 269.066406 133.882812 267.363281 137.152344 C 266.207031 139.363281 264.847656 141.445312 263.285156 143.386719 L 263.085938 143.640625 C 263.011719 143.710938 262.925781 143.746094 262.824219 143.746094 C 262.726562 143.75 262.636719 143.71875 262.5625 143.65625 C 262.484375 143.589844 262.4375 143.511719 262.421875 143.410156 C 262.40625 143.3125 262.421875 143.21875 262.476562 143.132812 C 264.085938 141.15625 265.484375 139.039062 266.679688 136.78125 L 266.679688 136.714844 C 263.558594 134.28125 260.839844 131.457031 258.515625 128.246094 C 259.425781 131.460938 259.933594 134.742188 260.035156 138.085938 C 260.136719 141.433594 259.828125 144.738281 259.113281 148.003906 C 265.15625 146.660156 271.273438 145.988281 277.460938 145.988281 C 283.648438 145.988281 289.765625 146.660156 295.808594 148.003906 C 295.089844 144.746094 294.773438 141.449219 294.867188 138.113281 C 294.960938 134.773438 295.457031 131.5 296.355469 128.285156 C 294.039062 131.484375 291.328125 134.292969 288.222656 136.714844 Z M 292.089844 156.921875 L 262.792969 156.921875 C 262.359375 156.921875 261.941406 157.007812 261.542969 157.171875 C 261.140625 157.339844 260.789062 157.578125 260.480469 157.882812 C 260.171875 158.191406 259.933594 158.546875 259.765625 158.949219 C 259.59375 159.347656 259.507812 159.769531 259.503906 160.203125 C 259.503906 160.644531 259.585938 161.066406 259.753906 161.472656 C 259.917969 161.878906 260.15625 162.238281 260.464844 162.546875 C 260.773438 162.859375 261.128906 163.097656 261.53125 163.265625 C 261.9375 163.433594 262.355469 163.519531 262.792969 163.519531 L 292.089844 163.519531 C 292.523438 163.519531 292.945312 163.433594 293.347656 163.265625 C 293.75 163.09375 294.105469 162.855469 294.410156 162.546875 C 294.71875 162.234375 294.957031 161.875 295.125 161.472656 C 295.292969 161.066406 295.375 160.644531 295.378906 160.203125 C 295.375 159.769531 295.289062 159.347656 295.117188 158.945312 C 294.949219 158.542969 294.710938 158.1875 294.402344 157.882812 C 294.097656 157.574219 293.742188 157.335938 293.339844 157.171875 C 292.941406 157.003906 292.523438 156.921875 292.089844 156.921875 Z M 283.746094 124.917969 C 284.152344 124.917969 284.542969 124.839844 284.917969 124.683594 C 285.296875 124.527344 285.628906 124.304688 285.914062 124.015625 C 286.203125 123.722656 286.425781 123.390625 286.582031 123.011719 C 286.734375 122.632812 286.8125 122.238281 286.8125 121.828125 C 286.8125 121.417969 286.734375 121.023438 286.582031 120.644531 C 286.425781 120.265625 286.203125 119.929688 285.914062 119.640625 C 285.628906 119.351562 285.296875 119.128906 284.917969 118.96875 C 284.542969 118.8125 284.152344 118.734375 283.746094 118.734375 C 283.339844 118.734375 282.945312 118.8125 282.570312 118.96875 C 282.195312 119.128906 281.863281 119.351562 281.574219 119.640625 C 281.289062 119.929688 281.066406 120.265625 280.910156 120.644531 C 280.753906 121.023438 280.675781 121.417969 280.675781 121.828125 C 280.675781 122.238281 280.753906 122.632812 280.910156 123.011719 C 281.066406 123.390625 281.289062 123.722656 281.574219 124.015625 C 281.863281 124.304688 282.195312 124.527344 282.570312 124.683594 C 282.945312 124.839844 283.339844 124.917969 283.746094 124.917969 Z M 271.136719 124.917969 C 271.539062 124.910156 271.925781 124.820312 272.296875 124.65625 C 272.664062 124.488281 272.992188 124.257812 273.269531 123.964844 C 273.550781 123.671875 273.761719 123.332031 273.910156 122.953125 C 274.054688 122.574219 274.125 122.179688 274.117188 121.773438 C 274.113281 121.363281 274.027344 120.972656 273.867188 120.601562 C 273.707031 120.226562 273.480469 119.898438 273.191406 119.613281 C 272.902344 119.328125 272.570312 119.109375 272.195312 118.957031 C 271.816406 118.808594 271.429688 118.734375 271.023438 118.738281 C 270.621094 118.738281 270.230469 118.820312 269.859375 118.980469 C 269.484375 119.136719 269.15625 119.363281 268.871094 119.652344 C 268.585938 119.941406 268.367188 120.273438 268.214844 120.652344 C 268.058594 121.027344 267.984375 121.417969 267.984375 121.828125 C 267.984375 122.246094 268.0625 122.644531 268.222656 123.03125 C 268.386719 123.414062 268.613281 123.753906 268.910156 124.042969 C 269.207031 124.335938 269.550781 124.558594 269.933594 124.707031 C 270.320312 124.859375 270.722656 124.929688 271.136719 124.917969 Z M 259.859375 125.375 C 259.863281 124.964844 259.789062 124.570312 259.636719 124.1875 C 259.484375 123.808594 259.269531 123.472656 258.984375 123.179688 C 258.699219 122.886719 258.367188 122.660156 257.996094 122.5 C 257.621094 122.339844 257.230469 122.253906 256.824219 122.25 C 256.414062 122.246094 256.023438 122.320312 255.644531 122.472656 C 255.269531 122.628906 254.933594 122.847656 254.644531 123.132812 C 254.351562 123.421875 254.128906 123.753906 253.96875 124.128906 C 253.808594 124.507812 253.726562 124.902344 253.722656 125.3125 C 253.71875 125.722656 253.792969 126.117188 253.945312 126.496094 C 254.097656 126.878906 254.316406 127.214844 254.597656 127.507812 C 254.882812 127.800781 255.214844 128.027344 255.589844 128.1875 C 255.960938 128.347656 256.351562 128.429688 256.757812 128.433594 C 257.164062 128.433594 257.550781 128.359375 257.925781 128.203125 C 258.296875 128.046875 258.628906 127.828125 258.914062 127.539062 C 259.199219 127.253906 259.421875 126.921875 259.578125 126.546875 C 259.734375 126.171875 259.816406 125.78125 259.816406 125.375 Z M 298.164062 122.28125 C 297.757812 122.28125 297.363281 122.359375 296.988281 122.519531 C 296.613281 122.675781 296.28125 122.898438 295.992188 123.1875 C 295.707031 123.476562 295.484375 123.8125 295.328125 124.191406 C 295.171875 124.570312 295.09375 124.964844 295.09375 125.375 C 295.09375 125.785156 295.171875 126.179688 295.328125 126.558594 C 295.484375 126.9375 295.707031 127.269531 295.992188 127.5625 C 296.28125 127.851562 296.613281 128.074219 296.988281 128.230469 C 297.363281 128.386719 297.757812 128.46875 298.164062 128.46875 C 298.570312 128.46875 298.960938 128.386719 299.335938 128.230469 C 299.714844 128.074219 300.042969 127.851562 300.332031 127.5625 C 300.621094 127.269531 300.84375 126.9375 300.996094 126.558594 C 301.152344 126.179688 301.230469 125.785156 301.230469 125.375 C 301.234375 124.960938 301.15625 124.5625 300.996094 124.179688 C 300.839844 123.796875 300.613281 123.460938 300.320312 123.171875 C 300.027344 122.878906 299.691406 122.65625 299.308594 122.503906 C 298.929688 122.347656 298.53125 122.277344 298.121094 122.28125 Z M 298.164062 122.28125 " fill-opacity="1" fill-rule="nonzero"/></g><g clip-path="url(#1ea2f17eed)"><path fill="#3084b2" d="M 120.964844 211.578125 C 120.128906 214.042969 118.902344 216.289062 117.285156 218.324219 L 87.988281 218.324219 C 86.371094 216.289062 85.144531 214.042969 84.308594 211.578125 C 90.34375 210.214844 96.453125 209.535156 102.636719 209.535156 C 108.820312 209.535156 114.929688 210.214844 120.964844 211.578125 Z M 113.417969 199.175781 L 113.417969 199.238281 C 114.613281 201.496094 116.011719 203.613281 117.621094 205.59375 C 117.695312 205.671875 117.734375 205.765625 117.734375 205.875 C 117.734375 205.984375 117.695312 206.078125 117.621094 206.15625 C 117.550781 206.21875 117.464844 206.25 117.371094 206.25 C 117.246094 206.25 117.144531 206.199219 117.066406 206.101562 L 116.863281 205.847656 C 115.328125 203.925781 113.980469 201.875 112.828125 199.695312 L 112.765625 199.578125 C 111.046875 196.324219 109.773438 192.898438 108.941406 189.308594 C 107.808594 194.371094 105.800781 199.054688 102.921875 203.359375 C 102.882812 203.414062 102.835938 203.453125 102.777344 203.484375 C 102.71875 203.515625 102.660156 203.527344 102.59375 203.527344 C 102.53125 203.527344 102.46875 203.515625 102.410156 203.484375 C 102.355469 203.453125 102.304688 203.414062 102.269531 203.359375 C 99.417969 199.050781 97.4375 194.367188 96.332031 189.308594 C 95.519531 192.90625 94.261719 196.339844 92.558594 199.609375 C 91.402344 201.824219 90.042969 203.902344 88.480469 205.847656 L 88.28125 206.101562 C 88.207031 206.171875 88.121094 206.207031 88.023438 206.207031 C 87.921875 206.210938 87.835938 206.179688 87.757812 206.117188 C 87.679688 206.050781 87.632812 205.96875 87.617188 205.871094 C 87.601562 205.773438 87.621094 205.679688 87.671875 205.59375 C 89.28125 203.613281 90.683594 201.496094 91.875 199.238281 L 91.875 199.175781 C 88.757812 196.742188 86.035156 193.917969 83.710938 190.703125 C 84.625 193.921875 85.128906 197.203125 85.230469 200.546875 C 85.332031 203.890625 85.027344 207.199219 84.308594 210.464844 C 90.351562 209.121094 96.46875 208.449219 102.65625 208.449219 C 108.847656 208.449219 114.960938 209.121094 121.003906 210.464844 C 120.285156 207.207031 119.96875 203.910156 120.0625 200.570312 C 120.15625 197.234375 120.652344 193.960938 121.550781 190.746094 C 119.234375 193.941406 116.523438 196.753906 113.417969 199.175781 Z M 117.285156 219.382812 L 87.988281 219.382812 C 87.554688 219.382812 87.136719 219.46875 86.738281 219.632812 C 86.335938 219.800781 85.984375 220.039062 85.675781 220.34375 C 85.367188 220.652344 85.128906 221.003906 84.960938 221.40625 C 84.792969 221.808594 84.703125 222.226562 84.699219 222.664062 C 84.699219 223.105469 84.78125 223.527344 84.949219 223.933594 C 85.117188 224.339844 85.355469 224.699219 85.660156 225.007812 C 85.96875 225.320312 86.328125 225.558594 86.730469 225.726562 C 87.132812 225.894531 87.550781 225.980469 87.988281 225.980469 L 117.285156 225.980469 C 117.722656 225.976562 118.140625 225.894531 118.542969 225.722656 C 118.945312 225.554688 119.300781 225.316406 119.609375 225.003906 C 119.917969 224.695312 120.152344 224.335938 120.320312 223.929688 C 120.488281 223.527344 120.574219 223.105469 120.574219 222.664062 C 120.570312 222.226562 120.484375 221.808594 120.316406 221.40625 C 120.144531 221.003906 119.90625 220.648438 119.601562 220.339844 C 119.292969 220.035156 118.9375 219.796875 118.535156 219.632812 C 118.136719 219.464844 117.71875 219.382812 117.285156 219.382812 Z M 108.941406 187.378906 C 109.347656 187.378906 109.738281 187.300781 110.117188 187.144531 C 110.492188 186.988281 110.824219 186.765625 111.113281 186.472656 C 111.398438 186.183594 111.621094 185.847656 111.777344 185.472656 C 111.933594 185.09375 112.011719 184.699219 112.011719 184.289062 C 112.011719 183.878906 111.933594 183.484375 111.777344 183.105469 C 111.621094 182.726562 111.398438 182.390625 111.113281 182.101562 C 110.824219 181.8125 110.492188 181.585938 110.117188 181.429688 C 109.738281 181.273438 109.347656 181.195312 108.941406 181.195312 C 108.535156 181.195312 108.144531 181.273438 107.765625 181.429688 C 107.390625 181.585938 107.058594 181.8125 106.773438 182.101562 C 106.484375 182.390625 106.261719 182.726562 106.105469 183.105469 C 105.949219 183.484375 105.875 183.878906 105.875 184.289062 C 105.875 184.699219 105.949219 185.09375 106.105469 185.472656 C 106.261719 185.847656 106.484375 186.183594 106.773438 186.472656 C 107.058594 186.765625 107.390625 186.988281 107.765625 187.144531 C 108.144531 187.300781 108.535156 187.378906 108.941406 187.378906 Z M 96.332031 187.378906 C 96.734375 187.367188 97.121094 187.28125 97.492188 187.113281 C 97.863281 186.949219 98.1875 186.71875 98.464844 186.425781 C 98.746094 186.128906 98.957031 185.792969 99.105469 185.414062 C 99.253906 185.035156 99.324219 184.640625 99.316406 184.234375 C 99.308594 183.824219 99.222656 183.433594 99.0625 183.058594 C 98.902344 182.6875 98.675781 182.355469 98.386719 182.074219 C 98.097656 181.789062 97.765625 181.570312 97.390625 181.417969 C 97.015625 181.265625 96.625 181.191406 96.21875 181.195312 C 95.816406 181.199219 95.425781 181.28125 95.054688 181.441406 C 94.683594 181.597656 94.351562 181.820312 94.070312 182.113281 C 93.785156 182.402344 93.5625 182.734375 93.410156 183.109375 C 93.257812 183.488281 93.179688 183.878906 93.179688 184.289062 C 93.179688 184.703125 93.257812 185.105469 93.421875 185.492188 C 93.582031 185.875 93.808594 186.214844 94.105469 186.503906 C 94.402344 186.796875 94.746094 187.015625 95.132812 187.167969 C 95.515625 187.320312 95.917969 187.390625 96.332031 187.378906 Z M 85.054688 187.835938 C 85.058594 187.425781 84.984375 187.03125 84.835938 186.648438 C 84.683594 186.269531 84.464844 185.933594 84.179688 185.640625 C 83.894531 185.347656 83.566406 185.121094 83.191406 184.957031 C 82.816406 184.796875 82.425781 184.714844 82.019531 184.710938 C 81.613281 184.707031 81.21875 184.78125 80.84375 184.933594 C 80.464844 185.085938 80.132812 185.308594 79.839844 185.59375 C 79.550781 185.882812 79.324219 186.214844 79.164062 186.589844 C 79.003906 186.96875 78.921875 187.363281 78.917969 187.773438 C 78.914062 188.179688 78.988281 188.578125 79.140625 188.957031 C 79.292969 189.335938 79.511719 189.675781 79.796875 189.96875 C 80.082031 190.261719 80.410156 190.488281 80.785156 190.648438 C 81.160156 190.808594 81.550781 190.890625 81.957031 190.894531 C 82.359375 190.894531 82.75 190.816406 83.121094 190.664062 C 83.496094 190.507812 83.824219 190.285156 84.109375 190 C 84.398438 189.714844 84.617188 189.382812 84.773438 189.007812 C 84.929688 188.632812 85.011719 188.242188 85.015625 187.835938 Z M 123.359375 184.742188 C 122.953125 184.742188 122.5625 184.820312 122.183594 184.976562 C 121.808594 185.136719 121.476562 185.359375 121.191406 185.648438 C 120.902344 185.9375 120.679688 186.273438 120.523438 186.652344 C 120.367188 187.03125 120.289062 187.425781 120.289062 187.835938 C 120.289062 188.246094 120.367188 188.640625 120.523438 189.019531 C 120.679688 189.398438 120.902344 189.730469 121.191406 190.019531 C 121.476562 190.3125 121.808594 190.535156 122.183594 190.691406 C 122.5625 190.847656 122.953125 190.925781 123.359375 190.925781 C 123.765625 190.925781 124.15625 190.847656 124.535156 190.691406 C 124.910156 190.535156 125.242188 190.3125 125.527344 190.019531 C 125.816406 189.730469 126.039062 189.398438 126.195312 189.019531 C 126.351562 188.640625 126.425781 188.246094 126.425781 187.835938 C 126.429688 187.421875 126.351562 187.023438 126.191406 186.640625 C 126.035156 186.257812 125.808594 185.921875 125.515625 185.628906 C 125.226562 185.339844 124.886719 185.117188 124.507812 184.964844 C 124.125 184.808594 123.726562 184.734375 123.316406 184.742188 Z M 123.359375 184.742188 " fill-opacity="1" fill-rule="nonzero"/></g><g clip-path="url(#564c671d7a)"><path fill="#c85d40" d="M 211.964844 300.039062 C 211.964844 304.675781 210.214844 309.140625 207.066406 312.546875 L 202.585938 317.390625 C 196.84375 323.605469 188.113281 326.09375 179.953125 323.851562 L 150.265625 315.679688 L 150.34375 314.441406 C 147.011719 322.125 139.355469 327.503906 130.441406 327.503906 L 72.96875 327.503906 C 68.183594 327.503906 63.90625 325.339844 61.058594 321.9375 C 60.660156 321.460938 60.292969 320.960938 59.957031 320.441406 C 59.789062 320.1875 59.632812 319.925781 59.480469 319.664062 C 58.191406 317.402344 57.449219 314.785156 57.449219 311.996094 L 57.449219 300.644531 C 57.449219 293.105469 63.5625 286.996094 71.109375 286.996094 L 126.445312 286.996094 L 126.445312 201.757812 C 126.445312 195.789062 129.207031 190.152344 133.921875 186.488281 L 134.609375 185.953125 C 137.867188 183.421875 141.875 182.046875 146.003906 182.046875 C 150.261719 182.046875 154.460938 183.042969 158.265625 184.957031 L 173.359375 192.550781 C 173.949219 192.847656 174.285156 193.488281 174.195312 194.144531 L 173.5 199.09375 C 173.285156 200.621094 171.976562 201.757812 170.433594 201.757812 L 152.125 201.757812 L 152.125 286.996094 L 191.285156 300.054688 L 178.992188 270.652344 C 178.046875 268.390625 177.558594 265.964844 177.558594 263.515625 C 177.558594 257.980469 180.039062 252.738281 184.316406 249.222656 L 188.339844 245.914062 L 188.339844 249.328125 C 188.339844 255.472656 190.148438 261.480469 193.535156 266.609375 L 208.914062 289.882812 C 210.902344 292.894531 211.964844 296.425781 211.964844 300.039062 " fill-opacity="1" fill-rule="nonzero"/></g><g clip-path="url(#148988e53d)"><path fill="#f89fa1" d="M 208.914062 289.882812 L 193.535156 266.609375 C 190.148438 261.480469 188.339844 255.472656 188.339844 249.328125 L 188.339844 246 C 186.046875 250.277344 182.804688 257.472656 184.035156 262.105469 C 184.992188 265.699219 198.078125 289.585938 203.992188 301.835938 C 206.070312 306.136719 205.34375 311.054688 204.074219 315.785156 L 207.066406 312.546875 C 210.214844 309.140625 211.964844 304.675781 211.964844 300.039062 C 211.964844 296.425781 210.902344 292.894531 208.914062 289.882812 Z M 142.148438 206.859375 L 142.148438 305.148438 C 142.148438 312.152344 138.472656 318.648438 132.460938 322.257812 L 123.722656 327.503906 L 130.441406 327.503906 C 142.417969 327.503906 152.46875 317.804688 152.46875 305.839844 L 152.46875 201.757812 L 146.632812 201.757812 C 144.101562 202.085938 142.148438 204.242188 142.148438 206.859375 Z M 195.269531 200.519531 L 172.910156 200.519531 C 173.214844 200.113281 173.421875 199.628906 173.5 199.09375 L 173.683594 197.78125 L 195.269531 197.78125 L 189.074219 199.148438 L 195.269531 200.519531 " fill-opacity="1" fill-rule="nonzero"/></g><g clip-path="url(#17ca9d2720)"><path fill="#ffffff" d="M 206.035156 302.402344 L 211.78125 302.636719 C 211.855469 302.113281 211.90625 301.585938 211.933594 301.058594 C 210.039062 301.160156 208.03125 301.546875 206.035156 302.402344 Z M 189.28125 268.964844 L 193.527344 266.601562 C 193.261719 266.195312 193.007812 265.78125 192.757812 265.367188 C 191.503906 266.335938 190.304688 267.519531 189.28125 268.964844 Z M 209.640625 291.082031 C 207.226562 291.722656 204.632812 292.871094 202.351562 294.882812 L 210.394531 292.601562 C 210.164062 292.085938 209.914062 291.578125 209.640625 291.082031 Z M 189.535156 257.886719 C 188.203125 258.886719 186.929688 260.125 185.84375 261.652344 L 189.984375 259.347656 C 189.824219 258.863281 189.675781 258.375 189.535156 257.886719 Z M 198.019531 273.398438 C 196.464844 274.46875 194.964844 275.84375 193.71875 277.605469 L 198.894531 274.722656 Z M 203.78125 282.117188 C 201.761719 283.105469 199.714844 284.519531 198 286.550781 L 204.710938 283.523438 Z M 191.769531 300.949219 L 191.738281 300.84375 L 191.710938 300.769531 L 191.707031 300.753906 L 191.707031 300.75 L 191.703125 300.746094 C 191.613281 300.773438 191.90625 300.683594 191.503906 300.804688 C 191.101562 300.925781 191.390625 300.839844 191.300781 300.867188 L 191.300781 300.875 L 191.304688 300.90625 L 191.308594 300.949219 L 191.320312 301.035156 C 191.328125 301.089844 191.324219 301.148438 191.320312 301.203125 C 191.324219 301.316406 191.300781 301.425781 191.285156 301.53125 C 191.230469 301.742188 191.140625 301.9375 191.015625 302.109375 C 190.894531 302.28125 190.730469 302.417969 190.554688 302.519531 C 190.378906 302.625 190.183594 302.699219 189.988281 302.714844 C 189.789062 302.734375 189.59375 302.722656 189.402344 302.660156 L 189.328125 302.640625 L 189.058594 302.546875 L 188.691406 302.417969 L 187.222656 301.933594 C 186.238281 301.625 185.253906 301.320312 184.257812 301.046875 C 183.261719 300.769531 182.261719 300.511719 181.246094 300.300781 C 181.164062 300.285156 181.082031 300.328125 181.046875 300.402344 C 181.007812 300.492188 181.046875 300.597656 181.136719 300.640625 C 182.082031 301.066406 183.046875 301.441406 184.011719 301.796875 C 184.980469 302.160156 185.957031 302.488281 186.9375 302.816406 L 188.410156 303.28125 L 188.78125 303.394531 L 188.96875 303.449219 L 189.058594 303.476562 L 189.175781 303.503906 C 189.480469 303.589844 189.8125 303.589844 190.121094 303.53125 C 190.753906 303.414062 191.289062 303 191.589844 302.46875 C 191.734375 302.199219 191.824219 301.90625 191.847656 301.605469 C 191.84375 301.457031 191.851562 301.308594 191.820312 301.160156 C 191.808594 301.089844 191.796875 301.015625 191.769531 300.949219 Z M 126.710938 295.386719 C 126.707031 295.292969 126.628906 295.214844 126.535156 295.214844 C 126.4375 295.210938 126.355469 295.289062 126.355469 295.386719 L 126.28125 299.144531 C 126.265625 299.769531 126.289062 300.410156 126.195312 300.980469 C 126.105469 301.566406 125.90625 302.132812 125.609375 302.640625 C 125.03125 303.664062 124.058594 304.453125 122.949219 304.816406 C 122.386719 305.003906 121.820312 305.066406 121.214844 305.058594 L 119.332031 305.039062 C 114.320312 304.992188 109.304688 304.992188 104.289062 304.96875 C 99.273438 304.984375 94.257812 304.980469 89.246094 305.023438 L 81.722656 305.09375 C 79.214844 305.136719 76.707031 305.160156 74.203125 305.21875 C 74.089844 305.222656 74 305.3125 73.996094 305.425781 C 73.992188 305.542969 74.085938 305.636719 74.203125 305.640625 C 76.707031 305.703125 79.214844 305.726562 81.722656 305.769531 L 89.246094 305.839844 C 94.257812 305.878906 99.273438 305.878906 104.289062 305.894531 C 109.304688 305.867188 114.320312 305.871094 119.332031 305.820312 L 121.214844 305.800781 C 121.859375 305.800781 122.550781 305.710938 123.175781 305.484375 C 124.441406 305.039062 125.527344 304.121094 126.15625 302.945312 C 126.46875 302.359375 126.671875 301.714844 126.753906 301.058594 C 126.832031 300.390625 126.785156 299.769531 126.78125 299.144531 Z M 134.707031 322.984375 L 136.234375 326.722656 C 136.667969 326.605469 137.101562 326.472656 137.527344 326.328125 C 136.769531 325.15625 135.847656 324.019531 134.707031 322.984375 Z M 146.699219 320.382812 C 147.054688 320.003906 147.390625 319.605469 147.714844 319.203125 C 146.378906 318.015625 144.796875 316.945312 142.929688 316.164062 Z M 146.152344 307.550781 L 152.097656 309.757812 C 152.195312 309.226562 152.28125 308.6875 152.34375 308.144531 C 150.464844 307.625 148.378906 307.347656 146.152344 307.550781 Z M 152.46875 299.804688 L 152.46875 298.183594 C 150.441406 298.324219 148.277344 298.789062 146.15625 299.804688 Z M 152.46875 290.832031 L 152.46875 289.195312 C 150.382812 289.320312 148.148438 289.785156 145.957031 290.832031 Z M 152.46875 281.859375 L 152.46875 280.210938 C 150.328125 280.320312 148.019531 280.777344 145.757812 281.859375 Z M 152.46875 272.886719 L 152.46875 271.230469 C 150.273438 271.320312 147.890625 271.769531 145.558594 272.886719 Z M 152.46875 263.914062 L 152.46875 262.25 C 150.21875 262.316406 147.761719 262.761719 145.355469 263.914062 Z M 152.46875 254.941406 L 152.46875 253.269531 C 150.164062 253.316406 147.632812 253.753906 145.15625 254.941406 Z M 152.46875 245.96875 L 152.46875 244.296875 C 150.109375 244.320312 147.503906 244.746094 144.957031 245.96875 Z M 152.46875 236.992188 L 152.46875 235.324219 C 150.058594 235.324219 147.378906 235.742188 144.757812 236.992188 Z M 152.46875 228.019531 L 152.46875 226.347656 C 150.007812 226.328125 147.25 226.734375 144.558594 228.019531 Z M 144.359375 219.046875 L 152.46875 219.046875 L 152.46875 217.378906 C 149.957031 217.332031 147.125 217.726562 144.359375 219.046875 Z M 144.160156 210.074219 L 152.46875 210.074219 L 152.46875 208.410156 C 149.90625 208.339844 147 208.714844 144.160156 210.074219 Z M 162.199219 189.441406 C 159.8125 192.117188 156.25 192.121094 153.792969 189.453125 C 156.988281 188.4375 159.699219 188.667969 162.199219 189.441406 " fill-opacity="1" fill-rule="nonzero"/></g><g clip-path="url(#1ce4de6a0c)"><path fill="#833a2d" d="M 169.082031 194.207031 C 170.050781 195.734375 171.800781 196.042969 173.207031 194.9375 Z M 158.894531 191.363281 C 159.238281 191.304688 159.578125 191.207031 159.914062 191.074219 C 159.828125 190.5625 159.632812 189.878906 159.183594 189.292969 C 159.039062 189.105469 158.878906 188.941406 158.710938 188.792969 C 158.171875 188.765625 157.621094 188.769531 157.054688 188.8125 C 157.15625 189.289062 157.355469 189.875 157.746094 190.386719 C 158.082031 190.824219 158.503906 191.140625 158.894531 191.363281 Z M 131.855469 277.242188 L 126.445312 277.242188 L 126.445312 293.34375 L 131.855469 293.34375 C 134.671875 293.34375 136.953125 291.0625 136.953125 288.246094 L 136.953125 282.339844 C 136.953125 279.527344 134.671875 277.242188 131.855469 277.242188 Z M 134.738281 254.792969 L 126.445312 254.792969 L 126.445312 270.890625 L 134.738281 270.890625 C 136.859375 270.890625 138.582031 269.171875 138.582031 267.050781 L 138.582031 258.632812 C 138.582031 256.511719 136.859375 254.792969 134.738281 254.792969 Z M 118.660156 305.429688 L 111.601562 305.429688 L 111.601562 311.363281 C 111.601562 313.484375 113.320312 315.203125 115.445312 315.203125 L 121.914062 315.203125 C 124.035156 315.203125 125.753906 313.484375 125.753906 311.363281 L 125.753906 303.011719 C 124.527344 304.839844 121.792969 305.726562 118.660156 305.429688 Z M 155.503906 295.863281 C 154.753906 297.84375 155.753906 300.0625 157.742188 300.8125 L 161.578125 302.261719 C 163.5625 303.011719 165.78125 302.011719 166.53125 300.03125 L 169.296875 292.722656 L 158.109375 288.992188 Z M 75.789062 308.816406 C 75.789062 310.9375 77.511719 312.65625 79.632812 312.65625 L 94.121094 312.65625 C 96.242188 312.65625 97.964844 310.9375 97.964844 308.816406 L 97.964844 305.429688 L 75.789062 305.429688 Z M 133.035156 247.039062 L 133.035156 232.5625 C 133.035156 230.441406 131.316406 228.722656 129.191406 228.722656 L 126.445312 228.722656 L 126.445312 250.878906 L 129.191406 250.878906 C 131.316406 250.878906 133.035156 249.160156 133.035156 247.039062 Z M 136.4375 221.632812 L 136.4375 207.15625 C 136.4375 205.035156 134.714844 203.316406 132.59375 203.316406 L 126.445312 203.316406 L 126.445312 225.472656 L 132.59375 225.472656 C 134.714844 225.472656 136.4375 223.753906 136.4375 221.632812 Z M 117.328125 298.070312 C 119.453125 298.070312 121.171875 296.351562 121.171875 294.230469 L 121.171875 286.996094 L 109.382812 286.996094 L 109.382812 294.230469 C 109.382812 296.351562 111.105469 298.070312 113.226562 298.070312 Z M 85.457031 286.996094 C 84.984375 287.632812 84.699219 288.421875 84.699219 289.28125 L 84.699219 290.980469 C 84.699219 293.101562 86.417969 294.820312 88.539062 294.820312 L 95.007812 294.820312 C 97.128906 294.820312 98.851562 293.101562 98.851562 290.980469 L 98.851562 289.28125 C 98.851562 288.421875 98.566406 287.632812 98.089844 286.996094 Z M 69.328125 287.113281 C 69.511719 287.566406 69.617188 288.0625 69.617188 288.578125 L 69.617188 297 C 69.617188 299.121094 67.898438 300.839844 65.773438 300.839844 L 59.308594 300.839844 C 58.636719 300.839844 58.003906 300.667969 57.457031 300.363281 C 57.59375 293.554688 62.714844 287.976562 69.328125 287.113281 " fill-opacity="1" fill-rule="nonzero"/></g><g clip-path="url(#300136f33f)"><g clip-path="url(#63ea4a5181)"><g clip-path="url(#9ad0c881d8)"><path fill="#3084b2" d="M 228.140625 252.089844 C 227.851562 254.8125 227.109375 257.402344 225.914062 259.859375 L 195.6875 266.714844 C 193.546875 265.011719 191.757812 262.996094 190.324219 260.667969 C 196.234375 257.863281 202.378906 255.734375 208.757812 254.289062 C 215.140625 252.84375 221.601562 252.109375 228.140625 252.089844 Z M 217.476562 241.15625 L 217.492188 241.222656 C 219.25 243.253906 221.1875 245.097656 223.304688 246.746094 C 223.402344 246.808594 223.460938 246.894531 223.488281 247.007812 C 223.511719 247.117188 223.496094 247.222656 223.433594 247.320312 C 223.375 247.402344 223.296875 247.457031 223.195312 247.476562 C 223.066406 247.503906 222.953125 247.476562 222.847656 247.398438 L 222.582031 247.183594 C 220.550781 245.574219 218.683594 243.789062 216.992188 241.828125 L 216.898438 241.722656 C 214.367188 238.789062 212.257812 235.582031 210.566406 232.097656 C 210.574219 237.550781 209.589844 242.816406 207.617188 247.898438 C 207.589844 247.960938 207.550781 248.015625 207.5 248.058594 C 207.449219 248.101562 207.386719 248.132812 207.320312 248.148438 C 207.253906 248.164062 207.1875 248.160156 207.121094 248.144531 C 207.054688 248.128906 206.996094 248.09375 206.945312 248.050781 C 203.003906 244.304688 199.871094 239.96875 197.554688 235.046875 C 197.554688 238.925781 197.054688 242.738281 196.058594 246.484375 C 195.378906 249.019531 194.460938 251.46875 193.300781 253.824219 L 193.152344 254.132812 C 193.09375 254.21875 193.011719 254.273438 192.910156 254.300781 C 192.804688 254.328125 192.707031 254.316406 192.613281 254.269531 C 192.519531 254.21875 192.453125 254.148438 192.414062 254.050781 C 192.375 253.953125 192.371094 253.851562 192.40625 253.753906 C 193.605469 251.351562 194.558594 248.855469 195.265625 246.261719 L 195.25 246.199219 C 191.46875 244.433594 188.003906 242.179688 184.859375 239.433594 C 186.546875 242.515625 187.832031 245.753906 188.714844 249.15625 C 189.597656 252.558594 190.046875 256.015625 190.066406 259.527344 C 195.988281 256.738281 202.144531 254.617188 208.527344 253.171875 C 214.914062 251.722656 221.378906 250.980469 227.925781 250.941406 C 226.425781 247.773438 225.335938 244.46875 224.65625 241.03125 C 223.976562 237.59375 223.730469 234.121094 223.910156 230.621094 C 222.261719 234.4375 220.117188 237.949219 217.476562 241.15625 Z M 226.160156 260.945312 L 195.933594 267.800781 C 195.488281 267.902344 195.074219 268.085938 194.703125 268.351562 C 194.328125 268.613281 194.015625 268.941406 193.769531 269.328125 C 193.523438 269.710938 193.363281 270.132812 193.28125 270.582031 C 193.199219 271.035156 193.207031 271.484375 193.300781 271.929688 C 193.402344 272.382812 193.589844 272.792969 193.855469 273.171875 C 194.121094 273.546875 194.449219 273.859375 194.839844 274.105469 C 195.230469 274.351562 195.652344 274.515625 196.109375 274.59375 C 196.5625 274.671875 197.015625 274.65625 197.464844 274.554688 L 227.691406 267.699219 C 228.140625 267.597656 228.554688 267.410156 228.929688 267.144531 C 229.304688 266.878906 229.617188 266.550781 229.863281 266.160156 C 230.109375 265.769531 230.269531 265.347656 230.347656 264.894531 C 230.425781 264.4375 230.417969 263.988281 230.316406 263.535156 C 230.210938 263.089844 230.023438 262.679688 229.757812 262.308594 C 229.488281 261.9375 229.160156 261.628906 228.769531 261.386719 C 228.382812 261.144531 227.960938 260.984375 227.507812 260.90625 C 227.058594 260.832031 226.605469 260.84375 226.160156 260.945312 Z M 210.117188 230.125 C 210.539062 230.027344 210.925781 229.855469 211.277344 229.609375 C 211.628906 229.359375 211.917969 229.054688 212.148438 228.6875 C 212.375 228.324219 212.527344 227.929688 212.601562 227.503906 C 212.671875 227.082031 212.660156 226.660156 212.566406 226.238281 C 212.472656 225.820312 212.300781 225.433594 212.050781 225.082031 C 211.800781 224.730469 211.496094 224.441406 211.132812 224.210938 C 210.765625 223.980469 210.371094 223.828125 209.949219 223.757812 C 209.523438 223.683594 209.101562 223.695312 208.683594 223.789062 C 208.261719 223.886719 207.878906 224.058594 207.527344 224.304688 C 207.175781 224.554688 206.882812 224.859375 206.652344 225.226562 C 206.425781 225.589844 206.273438 225.984375 206.199219 226.410156 C 206.128906 226.832031 206.140625 227.253906 206.234375 227.675781 C 206.332031 228.09375 206.503906 228.480469 206.75 228.832031 C 207 229.183594 207.304688 229.472656 207.671875 229.703125 C 208.035156 229.933594 208.429688 230.085938 208.851562 230.15625 C 209.277344 230.230469 209.699219 230.21875 210.117188 230.125 Z M 197.109375 233.074219 C 197.523438 232.96875 197.902344 232.789062 198.246094 232.53125 C 198.585938 232.277344 198.871094 231.964844 199.089844 231.597656 C 199.308594 231.230469 199.449219 230.835938 199.515625 230.410156 C 199.578125 229.988281 199.558594 229.570312 199.457031 229.152344 C 199.355469 228.738281 199.175781 228.355469 198.925781 228.011719 C 198.671875 227.667969 198.363281 227.382812 197.996094 227.160156 C 197.632812 226.933594 197.238281 226.789062 196.816406 226.722656 C 196.394531 226.65625 195.972656 226.671875 195.558594 226.769531 C 195.140625 226.867188 194.757812 227.039062 194.410156 227.289062 C 194.0625 227.539062 193.777344 227.847656 193.550781 228.207031 C 193.324219 228.570312 193.175781 228.964844 193.101562 229.386719 C 193.03125 229.808594 193.042969 230.226562 193.136719 230.644531 C 193.234375 231.074219 193.410156 231.464844 193.667969 231.820312 C 193.921875 232.175781 194.238281 232.46875 194.609375 232.699219 C 194.984375 232.925781 195.386719 233.074219 195.820312 233.140625 C 196.253906 233.203125 196.683594 233.183594 197.109375 233.074219 Z M 185.582031 236.179688 C 185.488281 235.757812 185.320312 235.371094 185.078125 235.015625 C 184.832031 234.664062 184.527344 234.367188 184.167969 234.136719 C 183.804688 233.902344 183.414062 233.746094 182.988281 233.671875 C 182.566406 233.59375 182.144531 233.601562 181.722656 233.691406 C 181.300781 233.78125 180.914062 233.949219 180.558594 234.195312 C 180.207031 234.441406 179.914062 234.742188 179.679688 235.105469 C 179.445312 235.46875 179.292969 235.859375 179.214844 236.285156 C 179.136719 236.707031 179.144531 237.128906 179.234375 237.550781 C 179.324219 237.972656 179.492188 238.359375 179.738281 238.710938 C 179.984375 239.066406 180.289062 239.359375 180.648438 239.59375 C 181.011719 239.828125 181.402344 239.980469 181.828125 240.058594 C 182.25 240.136719 182.671875 240.128906 183.09375 240.039062 C 183.511719 239.945312 183.894531 239.773438 184.242188 239.527344 C 184.589844 239.28125 184.878906 238.976562 185.109375 238.617188 C 185.335938 238.257812 185.488281 237.867188 185.5625 237.445312 C 185.636719 237.023438 185.628906 236.605469 185.539062 236.1875 Z M 224.382812 224.050781 C 223.960938 224.144531 223.574219 224.316406 223.226562 224.566406 C 222.875 224.8125 222.582031 225.121094 222.351562 225.484375 C 222.125 225.847656 221.972656 226.242188 221.898438 226.667969 C 221.828125 227.09375 221.839844 227.515625 221.933594 227.933594 C 222.027344 228.355469 222.199219 228.738281 222.449219 229.089844 C 222.699219 229.441406 223.003906 229.734375 223.367188 229.964844 C 223.734375 230.191406 224.128906 230.34375 224.550781 230.417969 C 224.976562 230.488281 225.398438 230.476562 225.816406 230.382812 C 226.238281 230.289062 226.625 230.117188 226.976562 229.867188 C 227.328125 229.617188 227.617188 229.3125 227.847656 228.949219 C 228.074219 228.582031 228.226562 228.1875 228.300781 227.765625 C 228.371094 227.339844 228.359375 226.917969 228.265625 226.5 C 228.171875 226.074219 227.996094 225.683594 227.746094 225.328125 C 227.496094 224.976562 227.183594 224.683594 226.8125 224.453125 C 226.445312 224.222656 226.046875 224.074219 225.617188 224.007812 C 225.1875 223.9375 224.761719 223.957031 224.339844 224.058594 Z M 224.382812 224.050781 " fill-opacity="1" fill-rule="nonzero"/></g></g></g></svg>