<svg xmlns="http://www.w3.org/2000/svg" xmlns:xlink="http://www.w3.org/1999/xlink" width="500" zoomAndPan="magnify" viewBox="0 0 375 374.999991" height="500" preserveAspectRatio="xMidYMid meet" version="1.0"><defs><clipPath id="e2db8c5b18"><path d="M 187.5 0 C 83.945312 0 0 83.945312 0 187.5 C 0 291.054688 83.945312 375 187.5 375 C 291.054688 375 375 291.054688 375 187.5 C 375 83.945312 291.054688 0 187.5 0 " clip-rule="nonzero"/></clipPath><clipPath id="71fabe928a"><path d="M 111.351562 285.050781 L 191 285.050781 L 191 312 L 111.351562 312 Z M 111.351562 285.050781 " clip-rule="nonzero"/></clipPath><clipPath id="9d2007c740"><path d="M 197 285.050781 L 233 285.050781 L 233 333.050781 L 197 333.050781 Z M 197 285.050781 " clip-rule="nonzero"/></clipPath><clipPath id="185a5ce79c"><path d="M 144 285.050781 L 163 285.050781 L 163 304 L 144 304 Z M 144 285.050781 " clip-rule="nonzero"/></clipPath><clipPath id="74defa254b"><path d="M 158 312 L 181 312 L 181 333.050781 L 158 333.050781 Z M 158 312 " clip-rule="nonzero"/></clipPath><clipPath id="1aab5c11a7"><path d="M 71.03125 71.03125 L 304.28125 71.03125 L 304.28125 304.28125 L 71.03125 304.28125 Z M 71.03125 71.03125 " clip-rule="nonzero"/></clipPath><clipPath id="9eb413099b"><path d="M 135.089844 81 L 181.589844 81 L 181.589844 125 L 135.089844 125 Z M 135.089844 81 " clip-rule="nonzero"/></clipPath><clipPath id="9b48ecf857"><path d="M 207 80 L 221 80 L 221 111.667969 L 207 111.667969 Z M 207 80 " clip-rule="nonzero"/></clipPath><clipPath id="1b25b81092"><path d="M 115 28.417969 L 261.351562 28.417969 L 261.351562 84 L 115 84 Z M 115 28.417969 " clip-rule="nonzero"/></clipPath><clipPath id="a44f366594"><path d="M 156 80 L 170 80 L 170 111.667969 L 156 111.667969 Z M 156 80 " clip-rule="nonzero"/></clipPath><clipPath id="914c08ebcb"><path d="M 111.351562 101 L 191 101 L 191 111.667969 L 111.351562 111.667969 Z M 111.351562 101 " clip-rule="nonzero"/></clipPath><clipPath id="659e273781"><path d="M 197 111 L 233 111 L 233 111.667969 L 197 111.667969 Z M 197 111 " clip-rule="nonzero"/></clipPath><clipPath id="2211443c77"><path d="M 144 111 L 163 111 L 163 111.667969 L 144 111.667969 Z M 144 111 " clip-rule="nonzero"/></clipPath><clipPath id="fb3c3c33f7"><path d="M 193.167969 250 L 239.667969 250 L 239.667969 293.664062 L 193.167969 293.664062 Z M 193.167969 250 " clip-rule="nonzero"/></clipPath><clipPath id="5449897442"><path d="M 248.511719 134 L 295.011719 134 L 295.011719 178 L 248.511719 178 Z M 248.511719 134 " clip-rule="nonzero"/></clipPath><clipPath id="b26d3b51ea"><path d="M 81.164062 188 L 127.664062 188 L 127.664062 231.75 L 81.164062 231.75 Z M 81.164062 188 " clip-rule="nonzero"/></clipPath><clipPath id="96d181dad7"><path d="M 112.5 285.050781 L 152.25 285.050781 L 152.25 312 L 112.5 312 Z M 112.5 285.050781 " clip-rule="nonzero"/></clipPath><clipPath id="465076771c"><path d="M 146 285.050781 L 152.25 285.050781 L 152.25 304 L 146 304 Z M 146 285.050781 " clip-rule="nonzero"/></clipPath></defs><g clip-path="url(#e2db8c5b18)"><rect x="-37.5" width="450" fill="#ffffff" y="-37.499999" height="449.999989" fill-opacity="1"/><path stroke-linecap="butt" transform="matrix(0.75, 0, 0, 0.75, 0.0000045, 0)" fill="none" stroke-linejoin="miter" d="M 249.999994 0 C 111.927078 0 -0.000006 111.927084 -0.000006 250 C -0.000006 388.072917 111.927078 500.000001 249.999994 500.000001 C 388.072911 500.000001 499.999995 388.072917 499.999995 250 C 499.999995 111.927084 388.072911 0 249.999994 0 " stroke="#000000" stroke-width="2" stroke-opacity="1" stroke-miterlimit="4"/></g><g clip-path="url(#71fabe928a)"><path fill="#3084b2" d="M 167.832031 306.097656 C 145.890625 305.109375 141.699219 281.925781 122.964844 286.359375 C 122.964844 286.359375 135.785156 285.980469 140.589844 298.691406 C 140.589844 298.691406 122.472656 294.867188 111.378906 303.875 C 111.378906 303.875 134.921875 299.34375 146.878906 306.113281 C 158.832031 312.886719 195.441406 321.15625 190.019531 266.601562 C 190.019531 266.601562 189.773438 307.085938 167.832031 306.097656 " fill-opacity="1" fill-rule="nonzero"/></g><g clip-path="url(#9d2007c740)"><path fill="#3084b2" d="M 224.40625 280.859375 C 222.269531 283.179688 220.511719 285.851562 219.136719 288.648438 C 218.40625 290.035156 217.859375 291.484375 217.238281 292.917969 C 216.71875 294.375 216.210938 295.839844 215.753906 297.316406 C 215.34375 298.800781 214.957031 300.292969 214.585938 301.785156 L 213.710938 306.296875 C 213.167969 309.175781 212.71875 311.964844 211.988281 314.707031 L 211.75 315.746094 L 211.429688 316.746094 C 211.214844 317.410156 211.015625 318.082031 210.8125 318.757812 C 210.640625 319.449219 210.3125 320.046875 210.078125 320.703125 C 209.808594 321.335938 209.617188 322.03125 209.285156 322.621094 C 208.148438 325.136719 206.644531 327.421875 204.691406 329.316406 C 204.460938 329.582031 204.203125 329.796875 203.929688 330 L 203.117188 330.640625 C 202.839844 330.84375 202.539062 331.003906 202.242188 331.195312 C 201.949219 331.386719 201.644531 331.566406 201.324219 331.707031 C 200.066406 332.347656 198.664062 332.789062 197.148438 332.921875 C 198.589844 333.449219 200.21875 333.519531 201.796875 333.277344 C 202.199219 333.246094 202.597656 333.167969 202.980469 333.046875 C 203.367188 332.9375 203.773438 332.847656 204.15625 332.714844 L 205.28125 332.238281 C 205.667969 332.085938 206.039062 331.910156 206.378906 331.691406 C 209.234375 330.066406 211.582031 327.617188 213.328125 324.917969 C 216.867188 319.496094 218.496094 313.269531 219.546875 307.265625 L 220.296875 302.980469 L 221.167969 298.734375 L 222.179688 294.542969 L 222.789062 292.488281 C 222.984375 291.796875 223.164062 291.097656 223.417969 290.4375 C 224.273438 287.703125 225.378906 285.089844 226.730469 282.582031 C 228.121094 280.117188 229.738281 277.664062 232.320312 276.066406 C 230.773438 276.199219 229.332031 276.953125 227.996094 277.777344 C 226.699219 278.660156 225.457031 279.6875 224.40625 280.859375 " fill-opacity="1" fill-rule="nonzero"/></g><g clip-path="url(#185a5ce79c)"><path fill="#3084b2" d="M 149.210938 277.777344 C 147.875 276.953125 146.433594 276.199219 144.886719 276.066406 C 147.46875 277.664062 149.085938 280.117188 150.476562 282.582031 C 151.828125 285.089844 152.933594 287.703125 153.792969 290.4375 C 154.046875 291.097656 154.226562 291.796875 154.417969 292.488281 L 155.027344 294.542969 L 156.039062 298.734375 L 156.503906 300.996094 C 158.460938 302.039062 160.582031 302.886719 162.941406 303.441406 L 162.625 301.785156 C 162.25 300.292969 161.863281 298.800781 161.453125 297.316406 C 160.996094 295.839844 160.488281 294.375 159.96875 292.917969 C 159.351562 291.484375 158.800781 290.035156 158.070312 288.648438 C 156.695312 285.851562 154.9375 283.179688 152.800781 280.859375 C 151.75 279.6875 150.507812 278.660156 149.210938 277.777344 " fill-opacity="1" fill-rule="nonzero"/></g><g clip-path="url(#74defa254b)"><path fill="#3084b2" d="M 174.964844 331.195312 C 174.671875 331.003906 174.371094 330.84375 174.089844 330.640625 L 173.28125 330 C 173.007812 329.796875 172.746094 329.582031 172.515625 329.316406 C 170.5625 327.421875 169.058594 325.136719 167.925781 322.621094 C 167.589844 322.03125 167.398438 321.335938 167.132812 320.703125 C 166.894531 320.046875 166.566406 319.449219 166.394531 318.757812 C 166.191406 318.082031 165.996094 317.410156 165.777344 316.746094 L 165.457031 315.746094 L 165.21875 314.707031 C 165.066406 314.140625 164.933594 313.570312 164.804688 312.996094 C 162.726562 312.949219 160.679688 312.71875 158.722656 312.355469 C 159.785156 316.703125 161.335938 321.019531 163.878906 324.917969 C 165.625 327.617188 167.972656 330.066406 170.828125 331.691406 C 171.171875 331.910156 171.542969 332.085938 171.925781 332.238281 L 173.050781 332.714844 C 173.4375 332.847656 173.839844 332.9375 174.226562 333.046875 C 174.609375 333.167969 175.007812 333.246094 175.410156 333.277344 C 176.988281 333.519531 178.617188 333.449219 180.058594 332.921875 C 178.542969 332.789062 177.140625 332.347656 175.882812 331.707031 C 175.5625 331.566406 175.257812 331.386719 174.964844 331.195312 " fill-opacity="1" fill-rule="nonzero"/></g><path fill="#ffffff" d="M 244.074219 244.074219 L 244.074219 187.660156 L 300.492188 187.660156 L 300.492188 244.074219 Z M 300.488281 74.824219 L 244.074219 74.824219 L 244.074219 131.25 L 300.488281 131.25 Z M 187.660156 300.492188 L 244.074219 300.492188 L 244.074219 244.074219 L 187.660156 244.074219 Z M 187.660156 131.25 L 187.660156 187.664062 L 244.074219 187.664062 L 244.074219 131.25 Z M 131.238281 187.660156 L 131.238281 244.074219 L 187.660156 244.074219 L 187.660156 187.660156 Z M 187.660156 74.824219 L 131.238281 74.824219 L 131.238281 131.25 L 187.660156 131.25 Z M 74.824219 300.492188 L 131.238281 300.492188 L 131.238281 244.074219 L 74.824219 244.074219 Z M 74.824219 131.25 L 74.824219 187.664062 L 131.238281 187.664062 L 131.238281 131.25 Z M 74.824219 131.25 " fill-opacity="1" fill-rule="nonzero"/><g clip-path="url(#1aab5c11a7)"><path fill="#000000" d="M 300.488281 71.03125 L 74.824219 71.03125 C 72.726562 71.03125 71.03125 72.726562 71.03125 74.824219 L 71.03125 300.492188 C 71.03125 302.585938 72.726562 304.28125 74.824219 304.28125 L 300.488281 304.28125 C 302.582031 304.28125 304.28125 302.585938 304.28125 300.492188 L 304.28125 74.824219 C 304.28125 72.726562 302.582031 71.03125 300.488281 71.03125 Z M 78.617188 135.042969 L 127.445312 135.042969 L 127.445312 183.871094 L 78.617188 183.871094 Z M 240.28125 183.871094 L 191.453125 183.871094 L 191.453125 135.042969 L 240.28125 135.042969 Z M 135.03125 191.453125 L 183.871094 191.453125 L 183.871094 240.285156 L 135.03125 240.285156 Z M 183.871094 127.457031 L 135.03125 127.457031 L 135.03125 78.617188 L 183.871094 78.617188 Z M 191.453125 247.867188 L 240.285156 247.867188 L 240.285156 296.699219 L 191.453125 296.699219 Z M 247.867188 240.285156 L 247.867188 191.453125 L 296.695312 191.453125 L 296.695312 240.285156 Z M 296.695312 127.457031 L 247.867188 127.457031 L 247.867188 78.617188 L 296.695312 78.617188 Z M 78.617188 247.867188 L 127.445312 247.867188 L 127.445312 296.699219 L 78.617188 296.699219 Z M 78.617188 247.867188 " fill-opacity="1" fill-rule="nonzero"/></g><g clip-path="url(#9eb413099b)"><path fill="#54c6c3" d="M 176.28125 110.800781 C 175.464844 113.1875 174.261719 115.363281 172.679688 117.332031 L 144 117.332031 C 142.414062 115.363281 141.214844 113.1875 140.398438 110.800781 C 146.304688 109.484375 152.285156 108.824219 158.339844 108.824219 C 164.394531 108.824219 170.375 109.484375 176.28125 110.800781 Z M 168.894531 98.796875 L 168.894531 98.859375 C 170.0625 101.042969 171.433594 103.09375 173.007812 105.007812 C 173.082031 105.085938 173.121094 105.175781 173.121094 105.28125 C 173.121094 105.386719 173.082031 105.476562 173.007812 105.550781 C 172.9375 105.613281 172.855469 105.644531 172.761719 105.644531 C 172.640625 105.644531 172.539062 105.59375 172.464844 105.5 L 172.269531 105.253906 C 170.761719 103.394531 169.445312 101.410156 168.316406 99.296875 L 168.257812 99.1875 C 166.574219 96.035156 165.324219 92.71875 164.511719 89.242188 C 163.402344 94.144531 161.4375 98.679688 158.617188 102.84375 C 158.539062 102.953125 158.433594 103.007812 158.296875 103.007812 C 158.164062 103.007812 158.058594 102.953125 157.980469 102.84375 C 155.1875 98.671875 153.25 94.136719 152.167969 89.242188 C 151.371094 92.726562 150.140625 96.050781 148.472656 99.214844 C 147.34375 101.359375 146.011719 103.371094 144.480469 105.253906 L 144.285156 105.5 C 144.214844 105.566406 144.128906 105.601562 144.03125 105.601562 C 143.933594 105.605469 143.847656 105.574219 143.773438 105.515625 C 143.699219 105.453125 143.652344 105.371094 143.636719 105.277344 C 143.621094 105.179688 143.636719 105.089844 143.691406 105.007812 C 145.265625 103.09375 146.636719 101.042969 147.804688 98.859375 L 147.804688 98.796875 C 144.75 96.4375 142.085938 93.707031 139.8125 90.59375 C 140.703125 93.710938 141.199219 96.886719 141.300781 100.125 C 141.398438 103.359375 141.097656 106.5625 140.398438 109.722656 C 146.3125 108.421875 152.300781 107.773438 158.359375 107.773438 C 164.417969 107.773438 170.40625 108.421875 176.320312 109.722656 C 175.617188 106.570312 175.308594 103.378906 175.398438 100.148438 C 175.488281 96.917969 175.976562 93.746094 176.855469 90.636719 C 174.589844 93.730469 171.933594 96.449219 168.894531 98.796875 Z M 172.679688 118.355469 L 144 118.355469 C 143.574219 118.359375 143.167969 118.4375 142.773438 118.601562 C 142.382812 118.761719 142.035156 118.992188 141.734375 119.289062 C 141.433594 119.585938 141.199219 119.929688 141.035156 120.316406 C 140.867188 120.707031 140.785156 121.113281 140.777344 121.535156 C 140.777344 121.960938 140.859375 122.367188 141.023438 122.761719 C 141.1875 123.15625 141.417969 123.503906 141.722656 123.804688 C 142.023438 124.105469 142.371094 124.335938 142.765625 124.5 C 143.160156 124.660156 143.570312 124.742188 144 124.742188 L 172.679688 124.742188 C 173.105469 124.742188 173.515625 124.660156 173.910156 124.496094 C 174.304688 124.332031 174.652344 124.101562 174.953125 123.800781 C 175.253906 123.5 175.488281 123.152344 175.652344 122.761719 C 175.816406 122.367188 175.898438 121.960938 175.898438 121.535156 C 175.894531 121.113281 175.8125 120.707031 175.644531 120.316406 C 175.480469 119.925781 175.246094 119.582031 174.945312 119.285156 C 174.644531 118.988281 174.296875 118.757812 173.90625 118.597656 C 173.511719 118.4375 173.105469 118.355469 172.679688 118.355469 Z M 164.511719 87.375 C 164.910156 87.375 165.292969 87.300781 165.660156 87.148438 C 166.027344 86.996094 166.355469 86.78125 166.636719 86.5 C 166.917969 86.21875 167.132812 85.894531 167.285156 85.527344 C 167.4375 85.160156 167.515625 84.777344 167.515625 84.382812 C 167.515625 83.984375 167.4375 83.601562 167.285156 83.238281 C 167.132812 82.871094 166.917969 82.546875 166.636719 82.265625 C 166.355469 81.984375 166.027344 81.769531 165.660156 81.617188 C 165.292969 81.464844 164.910156 81.390625 164.511719 81.390625 C 164.113281 81.390625 163.730469 81.464844 163.363281 81.617188 C 162.992188 81.769531 162.667969 81.984375 162.386719 82.265625 C 162.105469 82.546875 161.890625 82.871094 161.734375 83.238281 C 161.582031 83.601562 161.507812 83.984375 161.507812 84.382812 C 161.507812 84.777344 161.582031 85.160156 161.734375 85.527344 C 161.890625 85.894531 162.105469 86.21875 162.386719 86.5 C 162.667969 86.78125 162.992188 86.996094 163.363281 87.148438 C 163.730469 87.300781 164.113281 87.375 164.511719 87.375 Z M 152.167969 87.375 C 152.5625 87.363281 152.941406 87.28125 153.304688 87.121094 C 153.664062 86.960938 153.984375 86.738281 154.257812 86.453125 C 154.53125 86.164062 154.738281 85.839844 154.882812 85.472656 C 155.027344 85.105469 155.09375 84.722656 155.085938 84.328125 C 155.082031 83.933594 155 83.554688 154.839844 83.195312 C 154.683594 82.832031 154.464844 82.511719 154.179688 82.238281 C 153.894531 81.964844 153.570312 81.75 153.203125 81.605469 C 152.835938 81.457031 152.453125 81.386719 152.058594 81.390625 C 151.660156 81.394531 151.28125 81.472656 150.917969 81.625 C 150.550781 81.777344 150.230469 81.996094 149.949219 82.277344 C 149.671875 82.554688 149.457031 82.878906 149.304688 83.242188 C 149.15625 83.609375 149.082031 83.988281 149.082031 84.382812 C 149.078125 84.785156 149.160156 85.175781 149.316406 85.546875 C 149.472656 85.917969 149.699219 86.246094 149.988281 86.527344 C 150.28125 86.808594 150.613281 87.023438 150.992188 87.171875 C 151.371094 87.320312 151.761719 87.386719 152.167969 87.375 Z M 141.128906 87.816406 C 141.132812 87.417969 141.058594 87.035156 140.910156 86.667969 C 140.761719 86.300781 140.546875 85.972656 140.269531 85.691406 C 139.992188 85.40625 139.667969 85.1875 139.300781 85.03125 C 138.933594 84.875 138.554688 84.796875 138.15625 84.792969 C 137.757812 84.789062 137.371094 84.859375 137.003906 85.007812 C 136.632812 85.15625 136.304688 85.371094 136.023438 85.648438 C 135.738281 85.925781 135.515625 86.246094 135.359375 86.613281 C 135.203125 86.976562 135.125 87.359375 135.121094 87.753906 C 135.117188 88.152344 135.1875 88.535156 135.335938 88.902344 C 135.484375 89.269531 135.699219 89.597656 135.976562 89.878906 C 136.257812 90.164062 136.578125 90.382812 136.945312 90.539062 C 137.3125 90.695312 137.695312 90.773438 138.09375 90.777344 C 138.488281 90.777344 138.867188 90.703125 139.234375 90.554688 C 139.597656 90.402344 139.921875 90.191406 140.203125 89.914062 C 140.484375 89.636719 140.699219 89.316406 140.851562 88.953125 C 141.007812 88.589844 141.085938 88.210938 141.085938 87.816406 Z M 178.625 84.824219 C 178.226562 84.824219 177.84375 84.898438 177.476562 85.050781 C 177.109375 85.203125 176.785156 85.417969 176.503906 85.699219 C 176.21875 85.980469 176.003906 86.304688 175.851562 86.671875 C 175.699219 87.039062 175.621094 87.417969 175.621094 87.816406 C 175.621094 88.214844 175.699219 88.59375 175.851562 88.960938 C 176.003906 89.328125 176.21875 89.652344 176.503906 89.933594 C 176.785156 90.214844 177.109375 90.429688 177.476562 90.582031 C 177.84375 90.734375 178.226562 90.808594 178.625 90.808594 C 179.023438 90.808594 179.40625 90.734375 179.777344 90.582031 C 180.144531 90.429688 180.46875 90.214844 180.75 89.933594 C 181.03125 89.652344 181.25 89.328125 181.402344 88.960938 C 181.554688 88.59375 181.628906 88.214844 181.628906 87.816406 C 181.632812 87.414062 181.554688 87.03125 181.402344 86.660156 C 181.246094 86.289062 181.023438 85.964844 180.738281 85.683594 C 180.453125 85.402344 180.121094 85.183594 179.75 85.035156 C 179.375 84.886719 178.988281 84.816406 178.585938 84.824219 Z M 178.625 84.824219 " fill-opacity="1" fill-rule="nonzero"/></g><path fill="#3084b2" d="M 223.019531 45.894531 C 220.285156 55.179688 224.855469 62.679688 224.855469 62.679688 C 228.808594 53.773438 223.019531 45.894531 223.019531 45.894531 " fill-opacity="1" fill-rule="nonzero"/><g clip-path="url(#9b48ecf857)"><path fill="#3084b2" d="M 216.398438 89.699219 L 217.507812 93.957031 C 217.507812 93.957031 220.035156 89.699219 220.714844 85.132812 C 220.714844 85.132812 212.945312 84.453125 207.832031 80.875 C 207.832031 80.875 211.28125 99.511719 210.667969 111.605469 C 210.667969 111.605469 215.351562 99.449219 216.398438 89.699219 " fill-opacity="1" fill-rule="nonzero"/></g><path fill="#3084b2" d="M 152.351562 62.679688 C 152.351562 62.679688 156.921875 55.179688 154.1875 45.894531 C 154.1875 45.894531 148.398438 53.773438 152.351562 62.679688 " fill-opacity="1" fill-rule="nonzero"/><g clip-path="url(#1b25b81092)"><path fill="#3084b2" d="M 228.671875 68.570312 C 227.667969 69.277344 226.472656 69.78125 225.1875 69.996094 C 224.550781 70.125 223.878906 70.074219 223.234375 70.03125 L 222.296875 69.878906 L 221.359375 69.617188 C 220.105469 69.164062 219.046875 68.289062 218.222656 67.492188 C 217.410156 66.664062 216.636719 65.957031 215.765625 65.3125 C 214 64.0625 211.917969 63.15625 209.757812 62.296875 C 212.078125 62.355469 214.425781 62.859375 216.582031 64.003906 C 217.664062 64.5625 218.617188 65.382812 219.480469 66.105469 C 220.335938 66.855469 221.101562 67.449219 222.023438 67.761719 C 223.957031 68.472656 225.96875 68.246094 227.882812 67.253906 C 229.785156 66.269531 231.492188 64.753906 233.09375 63.089844 C 232.160156 65.214844 230.695312 67.167969 228.671875 68.570312 Z M 201.175781 56.136719 C 214.488281 57.523438 215.0625 43.558594 224.429688 43.3125 C 229.703125 43.171875 231.851562 47.253906 232.722656 50.847656 C 234.230469 57.058594 231.0625 63.539062 225.09375 65.800781 C 224.339844 66.085938 223.855469 66.1875 223.855469 66.1875 C 223.855469 66.1875 219.089844 59.851562 211.859375 60.015625 C 204.628906 60.179688 201.175781 56.136719 201.175781 56.136719 Z M 165.347656 60.015625 C 158.117188 59.851562 153.351562 66.1875 153.351562 66.1875 C 153.351562 66.1875 152.867188 66.085938 152.113281 65.800781 C 146.144531 63.539062 142.980469 57.058594 144.484375 50.847656 C 145.355469 47.253906 147.503906 43.171875 152.777344 43.3125 C 162.144531 43.558594 162.71875 57.523438 176.03125 56.136719 C 176.03125 56.136719 172.582031 60.179688 165.347656 60.015625 Z M 161.445312 65.3125 C 160.574219 65.957031 159.800781 66.664062 158.984375 67.492188 C 158.164062 68.289062 157.105469 69.164062 155.847656 69.617188 L 154.910156 69.878906 L 153.972656 70.03125 C 153.328125 70.074219 152.65625 70.125 152.019531 69.996094 C 150.734375 69.78125 149.542969 69.277344 148.535156 68.570312 C 146.511719 67.167969 145.046875 65.214844 144.113281 63.089844 C 145.714844 64.753906 147.425781 66.269531 149.328125 67.253906 C 151.242188 68.246094 153.25 68.472656 155.183594 67.761719 C 156.105469 67.449219 156.875 66.855469 157.730469 66.105469 C 158.59375 65.382812 159.542969 64.5625 160.628906 64.003906 C 162.78125 62.859375 165.128906 62.355469 167.449219 62.296875 C 165.292969 63.15625 163.207031 64.0625 161.445312 65.3125 Z M 236.058594 56.808594 C 236.058594 56.808594 236.058594 36.8125 225.828125 36.566406 C 215.597656 36.320312 207.214844 49.15625 207.214844 49.15625 C 211.160156 41.625 218.679688 36.441406 218.679688 36.441406 C 202.285156 28.417969 188.605469 28.996094 188.605469 28.996094 C 188.605469 28.996094 174.921875 28.417969 158.527344 36.441406 C 158.527344 36.441406 166.046875 41.625 169.992188 49.15625 C 169.992188 49.15625 161.609375 36.320312 151.378906 36.566406 C 141.148438 36.8125 141.148438 56.808594 141.148438 56.808594 C 141.148438 56.808594 123.523438 52.117188 115.882812 72.359375 C 115.882812 72.359375 125.332031 62.074219 132.726562 69.808594 C 140.121094 77.542969 148.503906 87.582031 163.789062 81.328125 C 179.070312 75.074219 180.222656 72.113281 188.605469 72.113281 C 196.984375 72.113281 198.136719 75.074219 213.417969 81.328125 C 228.703125 87.582031 237.085938 77.542969 244.480469 69.808594 C 251.875 62.074219 261.324219 72.359375 261.324219 72.359375 C 253.683594 52.117188 236.058594 56.808594 236.058594 56.808594 " fill-opacity="1" fill-rule="nonzero"/></g><g clip-path="url(#a44f366594)"><path fill="#3084b2" d="M 156.496094 85.132812 C 157.171875 89.699219 159.699219 93.957031 159.699219 93.957031 L 160.808594 89.699219 C 161.855469 99.449219 166.539062 111.605469 166.539062 111.605469 C 165.925781 99.511719 169.375 80.875 169.375 80.875 C 164.261719 84.453125 156.496094 85.132812 156.496094 85.132812 " fill-opacity="1" fill-rule="nonzero"/></g><g clip-path="url(#914c08ebcb)"><path fill="#3084b2" d="M 167.832031 141.242188 C 145.890625 140.253906 141.699219 117.070312 122.964844 121.503906 C 122.964844 121.503906 135.785156 121.125 140.589844 133.835938 C 140.589844 133.835938 122.472656 130.011719 111.378906 139.019531 C 111.378906 139.019531 134.921875 134.492188 146.878906 141.257812 C 158.832031 148.03125 195.441406 156.300781 190.019531 101.746094 C 190.019531 101.746094 189.773438 142.230469 167.832031 141.242188 " fill-opacity="1" fill-rule="nonzero"/></g><g clip-path="url(#659e273781)"><path fill="#3084b2" d="M 224.40625 116.003906 C 222.269531 118.328125 220.511719 120.996094 219.136719 123.792969 C 218.40625 125.183594 217.859375 126.628906 217.238281 128.066406 C 216.71875 129.519531 216.210938 130.988281 215.753906 132.460938 C 215.34375 133.945312 214.957031 135.4375 214.585938 136.929688 L 213.710938 141.441406 C 213.167969 144.320312 212.71875 147.109375 211.988281 149.851562 L 211.75 150.890625 L 211.429688 151.890625 C 211.214844 152.554688 211.015625 153.226562 210.8125 153.902344 C 210.640625 154.59375 210.3125 155.191406 210.078125 155.847656 C 209.808594 156.480469 209.617188 157.179688 209.285156 157.765625 C 208.148438 160.28125 206.644531 162.566406 204.691406 164.464844 C 204.460938 164.726562 204.203125 164.945312 203.929688 165.144531 L 203.117188 165.785156 C 202.839844 165.988281 202.539062 166.152344 202.242188 166.339844 C 201.949219 166.53125 201.644531 166.710938 201.324219 166.851562 C 200.066406 167.492188 198.664062 167.933594 197.148438 168.066406 C 198.589844 168.59375 200.21875 168.664062 201.796875 168.425781 C 202.199219 168.390625 202.597656 168.3125 202.980469 168.191406 C 203.367188 168.082031 203.773438 167.992188 204.15625 167.859375 L 205.28125 167.386719 C 205.667969 167.234375 206.039062 167.054688 206.378906 166.835938 C 209.234375 165.210938 211.582031 162.761719 213.328125 160.066406 C 216.867188 154.640625 218.496094 148.414062 219.546875 142.410156 L 220.296875 138.125 L 221.167969 133.882812 L 222.179688 129.6875 L 222.789062 127.632812 C 222.984375 126.941406 223.164062 126.242188 223.417969 125.582031 C 224.273438 122.847656 225.378906 120.234375 226.730469 117.726562 C 228.121094 115.265625 229.738281 112.808594 232.320312 111.210938 C 230.773438 111.34375 229.332031 112.097656 227.996094 112.921875 C 226.699219 113.804688 225.457031 114.832031 224.40625 116.003906 " fill-opacity="1" fill-rule="nonzero"/></g><g clip-path="url(#2211443c77)"><path fill="#3084b2" d="M 149.210938 112.921875 C 147.875 112.097656 146.433594 111.34375 144.886719 111.210938 C 147.46875 112.808594 149.085938 115.265625 150.476562 117.726562 C 151.828125 120.234375 152.933594 122.847656 153.792969 125.582031 C 154.046875 126.242188 154.226562 126.941406 154.417969 127.632812 L 155.027344 129.6875 L 156.039062 133.882812 L 156.503906 136.144531 C 158.460938 137.183594 160.582031 138.03125 162.941406 138.585938 L 162.625 136.929688 C 162.25 135.4375 161.863281 133.945312 161.453125 132.460938 C 160.996094 130.988281 160.488281 129.519531 159.96875 128.066406 C 159.351562 126.628906 158.800781 125.183594 158.070312 123.792969 C 156.695312 120.996094 154.9375 118.328125 152.800781 116.003906 C 151.75 114.832031 150.507812 113.804688 149.210938 112.921875 " fill-opacity="1" fill-rule="nonzero"/></g><g clip-path="url(#fb3c3c33f7)"><path fill="#54c6c3" d="M 234.359375 279.414062 C 233.539062 281.800781 232.339844 283.976562 230.757812 285.945312 L 202.074219 285.945312 C 200.492188 283.976562 199.292969 281.800781 198.476562 279.414062 C 204.382812 278.097656 210.363281 277.4375 216.417969 277.4375 C 222.46875 277.4375 228.449219 278.097656 234.359375 279.414062 Z M 226.972656 267.410156 L 226.972656 267.46875 C 228.140625 269.65625 229.511719 271.707031 231.085938 273.621094 C 231.160156 273.695312 231.199219 273.789062 231.199219 273.894531 C 231.199219 274 231.160156 274.089844 231.085938 274.164062 C 231.015625 274.226562 230.933594 274.257812 230.839844 274.257812 C 230.71875 274.253906 230.617188 274.207031 230.542969 274.113281 L 230.347656 273.867188 C 228.839844 272.007812 227.523438 270.019531 226.394531 267.910156 L 226.332031 267.796875 C 224.652344 264.644531 223.402344 261.332031 222.589844 257.855469 C 221.480469 262.757812 219.515625 267.292969 216.695312 271.457031 C 216.617188 271.566406 216.511719 271.621094 216.375 271.621094 C 216.242188 271.621094 216.132812 271.566406 216.054688 271.457031 C 213.265625 267.285156 211.328125 262.75 210.242188 257.855469 C 209.449219 261.339844 208.21875 264.664062 206.550781 267.828125 C 205.417969 269.972656 204.089844 271.984375 202.558594 273.867188 L 202.363281 274.113281 C 202.292969 274.179688 202.207031 274.214844 202.109375 274.214844 C 202.011719 274.21875 201.925781 274.1875 201.851562 274.125 C 201.773438 274.0625 201.730469 273.984375 201.714844 273.890625 C 201.699219 273.792969 201.714844 273.703125 201.765625 273.621094 C 203.339844 271.707031 204.714844 269.65625 205.882812 267.46875 L 205.882812 267.410156 C 202.828125 265.050781 200.164062 262.316406 197.886719 259.207031 C 198.78125 262.320312 199.277344 265.496094 199.378906 268.734375 C 199.476562 271.972656 199.175781 275.171875 198.476562 278.335938 C 204.390625 277.035156 210.378906 276.382812 216.4375 276.382812 C 222.496094 276.382812 228.484375 277.035156 234.398438 278.335938 C 233.695312 275.183594 233.386719 271.988281 233.476562 268.757812 C 233.566406 265.527344 234.054688 262.359375 234.933594 259.25 C 232.664062 262.34375 230.011719 265.0625 226.972656 267.410156 Z M 230.757812 286.96875 L 202.074219 286.96875 C 201.652344 286.96875 201.242188 287.050781 200.851562 287.210938 C 200.460938 287.375 200.113281 287.601562 199.8125 287.902344 C 199.511719 288.199219 199.277344 288.539062 199.113281 288.929688 C 198.945312 289.320312 198.859375 289.722656 198.855469 290.148438 C 198.855469 290.570312 198.9375 290.980469 199.101562 291.375 C 199.265625 291.769531 199.496094 292.113281 199.796875 292.414062 C 200.101562 292.714844 200.449219 292.949219 200.84375 293.109375 C 201.238281 293.273438 201.648438 293.355469 202.074219 293.355469 L 230.757812 293.355469 C 231.183594 293.355469 231.59375 293.273438 231.988281 293.109375 C 232.382812 292.945312 232.730469 292.714844 233.03125 292.414062 C 233.332031 292.113281 233.566406 291.765625 233.730469 291.375 C 233.894531 290.980469 233.976562 290.570312 233.976562 290.148438 C 233.972656 289.722656 233.890625 289.316406 233.722656 288.929688 C 233.558594 288.539062 233.324219 288.195312 233.023438 287.898438 C 232.722656 287.601562 232.375 287.371094 231.984375 287.210938 C 231.589844 287.050781 231.183594 286.96875 230.757812 286.96875 Z M 222.589844 255.988281 C 222.988281 255.988281 223.371094 255.914062 223.738281 255.761719 C 224.105469 255.609375 224.429688 255.390625 224.714844 255.113281 C 224.996094 254.832031 225.210938 254.507812 225.363281 254.140625 C 225.515625 253.773438 225.59375 253.390625 225.59375 252.996094 C 225.59375 252.597656 225.515625 252.214844 225.363281 251.847656 C 225.210938 251.480469 224.996094 251.160156 224.714844 250.878906 C 224.429688 250.597656 224.105469 250.382812 223.738281 250.230469 C 223.371094 250.078125 222.988281 250 222.589844 250 C 222.191406 250 221.808594 250.078125 221.441406 250.230469 C 221.070312 250.382812 220.746094 250.597656 220.464844 250.878906 C 220.183594 251.160156 219.964844 251.480469 219.8125 251.847656 C 219.660156 252.214844 219.585938 252.597656 219.585938 252.996094 C 219.585938 253.390625 219.660156 253.773438 219.8125 254.140625 C 219.964844 254.507812 220.183594 254.832031 220.464844 255.113281 C 220.746094 255.390625 221.070312 255.609375 221.441406 255.761719 C 221.808594 255.914062 222.191406 255.988281 222.589844 255.988281 Z M 210.242188 255.988281 C 210.640625 255.976562 211.019531 255.890625 211.378906 255.730469 C 211.742188 255.570312 212.058594 255.347656 212.332031 255.0625 C 212.605469 254.777344 212.816406 254.453125 212.960938 254.085938 C 213.105469 253.71875 213.171875 253.335938 213.164062 252.941406 C 213.15625 252.546875 213.074219 252.167969 212.917969 251.804688 C 212.761719 251.445312 212.539062 251.125 212.257812 250.851562 C 211.972656 250.574219 211.648438 250.363281 211.28125 250.21875 C 210.914062 250.070312 210.53125 250 210.136719 250.003906 C 209.738281 250.007812 209.359375 250.085938 208.992188 250.238281 C 208.628906 250.390625 208.308594 250.609375 208.027344 250.886719 C 207.75 251.167969 207.535156 251.492188 207.382812 251.855469 C 207.234375 252.21875 207.15625 252.601562 207.15625 252.996094 C 207.15625 253.398438 207.234375 253.785156 207.394531 254.160156 C 207.550781 254.53125 207.777344 254.859375 208.066406 255.140625 C 208.355469 255.421875 208.691406 255.636719 209.070312 255.785156 C 209.445312 255.929688 209.839844 256 210.242188 255.988281 Z M 199.207031 256.429688 C 199.210938 256.03125 199.136719 255.648438 198.988281 255.28125 C 198.839844 254.914062 198.625 254.585938 198.347656 254.304688 C 198.070312 254.019531 197.746094 253.800781 197.378906 253.644531 C 197.011719 253.488281 196.628906 253.410156 196.230469 253.40625 C 195.835938 253.402344 195.449219 253.472656 195.082031 253.621094 C 194.710938 253.769531 194.382812 253.980469 194.097656 254.261719 C 193.816406 254.539062 193.59375 254.859375 193.4375 255.222656 C 193.28125 255.589844 193.203125 255.96875 193.199219 256.367188 C 193.195312 256.765625 193.265625 257.148438 193.414062 257.515625 C 193.5625 257.882812 193.777344 258.210938 194.054688 258.492188 C 194.335938 258.777344 194.65625 258.996094 195.023438 259.152344 C 195.390625 259.308594 195.773438 259.386719 196.171875 259.390625 C 196.566406 259.390625 196.945312 259.316406 197.3125 259.167969 C 197.675781 259.015625 198 258.800781 198.28125 258.523438 C 198.5625 258.246094 198.777344 257.925781 198.929688 257.5625 C 199.082031 257.203125 199.160156 256.824219 199.164062 256.429688 Z M 236.703125 253.433594 C 236.304688 253.433594 235.921875 253.511719 235.554688 253.664062 C 235.1875 253.816406 234.859375 254.03125 234.578125 254.3125 C 234.296875 254.59375 234.082031 254.917969 233.929688 255.285156 C 233.777344 255.648438 233.699219 256.03125 233.699219 256.429688 C 233.699219 256.824219 233.777344 257.207031 233.929688 257.574219 C 234.082031 257.941406 234.296875 258.265625 234.578125 258.546875 C 234.859375 258.828125 235.1875 259.042969 235.554688 259.195312 C 235.921875 259.347656 236.304688 259.421875 236.703125 259.421875 C 237.101562 259.421875 237.484375 259.347656 237.851562 259.195312 C 238.222656 259.042969 238.546875 258.828125 238.828125 258.546875 C 239.109375 258.265625 239.328125 257.941406 239.480469 257.574219 C 239.632812 257.207031 239.707031 256.824219 239.707031 256.429688 C 239.710938 256.027344 239.632812 255.640625 239.476562 255.273438 C 239.324219 254.902344 239.101562 254.574219 238.816406 254.292969 C 238.53125 254.011719 238.199219 253.796875 237.828125 253.648438 C 237.453125 253.5 237.066406 253.429688 236.664062 253.433594 Z M 236.703125 253.433594 " fill-opacity="1" fill-rule="nonzero"/></g><g clip-path="url(#5449897442)"><path fill="#54c6c3" d="M 289.703125 163.917969 C 288.886719 166.300781 287.683594 168.480469 286.101562 170.445312 L 257.417969 170.445312 C 255.835938 168.480469 254.636719 166.300781 253.820312 163.917969 C 259.726562 162.597656 265.707031 161.941406 271.761719 161.941406 C 277.8125 161.941406 283.792969 162.597656 289.703125 163.917969 Z M 282.316406 151.910156 L 282.316406 151.972656 C 283.484375 154.15625 284.855469 156.207031 286.429688 158.125 C 286.503906 158.199219 286.542969 158.289062 286.542969 158.394531 C 286.542969 158.5 286.503906 158.589844 286.429688 158.667969 C 286.359375 158.730469 286.277344 158.761719 286.183594 158.757812 C 286.0625 158.757812 285.960938 158.710938 285.886719 158.617188 L 285.691406 158.371094 C 284.183594 156.507812 282.867188 154.523438 281.738281 152.414062 L 281.679688 152.300781 C 279.996094 149.148438 278.746094 145.832031 277.933594 142.355469 C 276.824219 147.261719 274.859375 151.792969 272.039062 155.960938 C 271.960938 156.070312 271.855469 156.125 271.71875 156.125 C 271.585938 156.125 271.476562 156.070312 271.402344 155.960938 C 268.609375 151.789062 266.671875 147.253906 265.589844 142.355469 C 264.792969 145.84375 263.5625 149.167969 261.894531 152.332031 C 260.765625 154.476562 259.433594 156.488281 257.902344 158.371094 L 257.707031 158.617188 C 257.636719 158.683594 257.550781 158.714844 257.453125 158.71875 C 257.355469 158.722656 257.269531 158.691406 257.195312 158.628906 C 257.117188 158.566406 257.074219 158.488281 257.058594 158.390625 C 257.042969 158.296875 257.058594 158.207031 257.109375 158.125 C 258.6875 156.207031 260.058594 154.15625 261.226562 151.972656 L 261.226562 151.910156 C 258.171875 149.554688 255.507812 146.820312 253.234375 143.710938 C 254.125 146.824219 254.621094 150 254.722656 153.238281 C 254.820312 156.476562 254.519531 159.675781 253.820312 162.839844 C 259.734375 161.539062 265.722656 160.886719 271.78125 160.886719 C 277.839844 160.886719 283.828125 161.539062 289.742188 162.839844 C 289.039062 159.683594 288.730469 156.492188 288.820312 153.261719 C 288.910156 150.03125 289.398438 146.859375 290.277344 143.75 C 288.011719 146.84375 285.355469 149.566406 282.316406 151.910156 Z M 286.101562 171.472656 L 257.417969 171.472656 C 256.996094 171.472656 256.585938 171.554688 256.195312 171.714844 C 255.804688 171.875 255.457031 172.105469 255.15625 172.402344 C 254.855469 172.699219 254.621094 173.042969 254.457031 173.433594 C 254.289062 173.820312 254.203125 174.226562 254.199219 174.648438 C 254.199219 175.074219 254.28125 175.484375 254.445312 175.878906 C 254.609375 176.269531 254.839844 176.617188 255.144531 176.917969 C 255.445312 177.21875 255.792969 177.453125 256.1875 177.613281 C 256.582031 177.777344 256.992188 177.859375 257.417969 177.859375 L 286.101562 177.859375 C 286.527344 177.855469 286.9375 177.773438 287.332031 177.613281 C 287.726562 177.449219 288.074219 177.214844 288.375 176.914062 C 288.675781 176.613281 288.910156 176.269531 289.074219 175.875 C 289.238281 175.484375 289.320312 175.074219 289.320312 174.648438 C 289.316406 174.226562 289.234375 173.820312 289.066406 173.429688 C 288.902344 173.042969 288.667969 172.699219 288.367188 172.402344 C 288.066406 172.101562 287.71875 171.875 287.328125 171.710938 C 286.933594 171.550781 286.527344 171.472656 286.101562 171.472656 Z M 277.933594 140.492188 C 278.332031 140.492188 278.714844 140.414062 279.082031 140.261719 C 279.449219 140.109375 279.777344 139.894531 280.058594 139.613281 C 280.339844 139.332031 280.554688 139.011719 280.707031 138.644531 C 280.859375 138.277344 280.9375 137.894531 280.9375 137.496094 C 280.9375 137.101562 280.859375 136.71875 280.707031 136.351562 C 280.554688 135.984375 280.339844 135.660156 280.058594 135.378906 C 279.777344 135.101562 279.449219 134.882812 279.082031 134.730469 C 278.714844 134.578125 278.332031 134.503906 277.933594 134.503906 C 277.535156 134.503906 277.152344 134.578125 276.785156 134.730469 C 276.414062 134.882812 276.089844 135.101562 275.808594 135.378906 C 275.527344 135.660156 275.308594 135.984375 275.15625 136.351562 C 275.003906 136.71875 274.929688 137.101562 274.929688 137.496094 C 274.929688 137.894531 275.003906 138.277344 275.15625 138.644531 C 275.308594 139.011719 275.527344 139.332031 275.808594 139.613281 C 276.089844 139.894531 276.414062 140.109375 276.785156 140.261719 C 277.152344 140.414062 277.535156 140.492188 277.933594 140.492188 Z M 265.589844 140.492188 C 265.984375 140.480469 266.363281 140.394531 266.722656 140.234375 C 267.085938 140.074219 267.402344 139.851562 267.675781 139.566406 C 267.953125 139.28125 268.160156 138.953125 268.304688 138.585938 C 268.449219 138.21875 268.515625 137.839844 268.507812 137.445312 C 268.503906 137.050781 268.417969 136.671875 268.261719 136.308594 C 268.105469 135.949219 267.882812 135.628906 267.601562 135.351562 C 267.316406 135.078125 266.992188 134.867188 266.625 134.71875 C 266.257812 134.574219 265.875 134.5 265.480469 134.503906 C 265.082031 134.507812 264.703125 134.585938 264.339844 134.742188 C 263.972656 134.894531 263.652344 135.109375 263.371094 135.390625 C 263.09375 135.671875 262.878906 135.992188 262.726562 136.359375 C 262.578125 136.722656 262.5 137.101562 262.5 137.496094 C 262.5 137.902344 262.582031 138.289062 262.738281 138.664062 C 262.894531 139.035156 263.121094 139.363281 263.410156 139.644531 C 263.699219 139.925781 264.035156 140.140625 264.414062 140.285156 C 264.789062 140.433594 265.183594 140.503906 265.589844 140.492188 Z M 254.550781 140.933594 C 254.554688 140.535156 254.480469 140.152344 254.332031 139.785156 C 254.183594 139.414062 253.96875 139.089844 253.691406 138.804688 C 253.414062 138.523438 253.089844 138.304688 252.722656 138.148438 C 252.355469 137.992188 251.976562 137.910156 251.578125 137.90625 C 251.179688 137.902344 250.792969 137.976562 250.425781 138.125 C 250.054688 138.273438 249.726562 138.484375 249.445312 138.761719 C 249.160156 139.039062 248.9375 139.363281 248.78125 139.726562 C 248.625 140.09375 248.546875 140.472656 248.542969 140.871094 C 248.539062 141.265625 248.609375 141.648438 248.757812 142.019531 C 248.90625 142.386719 249.121094 142.710938 249.398438 142.996094 C 249.679688 143.28125 250 143.5 250.367188 143.65625 C 250.734375 143.8125 251.117188 143.890625 251.515625 143.894531 C 251.910156 143.894531 252.289062 143.820312 252.65625 143.667969 C 253.019531 143.519531 253.34375 143.304688 253.625 143.027344 C 253.90625 142.75 254.121094 142.429688 254.273438 142.066406 C 254.425781 141.703125 254.503906 141.324219 254.507812 140.933594 Z M 292.046875 137.9375 C 291.648438 137.9375 291.265625 138.015625 290.898438 138.167969 C 290.53125 138.316406 290.207031 138.535156 289.921875 138.816406 C 289.640625 139.097656 289.425781 139.417969 289.273438 139.785156 C 289.121094 140.152344 289.042969 140.535156 289.042969 140.933594 C 289.042969 141.328125 289.121094 141.710938 289.273438 142.078125 C 289.425781 142.445312 289.640625 142.769531 289.921875 143.046875 C 290.207031 143.328125 290.53125 143.546875 290.898438 143.699219 C 291.265625 143.847656 291.648438 143.925781 292.046875 143.925781 C 292.445312 143.925781 292.828125 143.847656 293.199219 143.699219 C 293.566406 143.546875 293.890625 143.328125 294.171875 143.046875 C 294.453125 142.769531 294.671875 142.445312 294.824219 142.078125 C 294.976562 141.710938 295.050781 141.328125 295.050781 140.933594 C 295.054688 140.53125 294.976562 140.144531 294.820312 139.773438 C 294.667969 139.40625 294.445312 139.078125 294.160156 138.796875 C 293.875 138.515625 293.542969 138.300781 293.171875 138.152344 C 292.796875 138.003906 292.410156 137.929688 292.007812 137.9375 Z M 292.046875 137.9375 " fill-opacity="1" fill-rule="nonzero"/></g><g clip-path="url(#b26d3b51ea)"><path fill="#54c6c3" d="M 122.355469 217.5 C 121.535156 219.882812 120.335938 222.0625 118.753906 224.027344 L 90.070312 224.027344 C 88.488281 222.0625 87.289062 219.882812 86.472656 217.5 C 92.378906 216.179688 98.359375 215.523438 104.414062 215.523438 C 110.464844 215.523438 116.445312 216.179688 122.355469 217.5 Z M 114.96875 205.492188 L 114.96875 205.554688 C 116.136719 207.738281 117.507812 209.789062 119.082031 211.707031 C 119.15625 211.78125 119.195312 211.871094 119.195312 211.976562 C 119.195312 212.082031 119.15625 212.171875 119.082031 212.25 C 119.011719 212.3125 118.929688 212.34375 118.835938 212.339844 C 118.714844 212.339844 118.613281 212.292969 118.539062 212.199219 L 118.34375 211.953125 C 116.835938 210.089844 115.519531 208.105469 114.390625 205.996094 L 114.328125 205.882812 C 112.648438 202.730469 111.398438 199.417969 110.585938 195.9375 C 109.476562 200.84375 107.511719 205.375 104.691406 209.542969 C 104.613281 209.652344 104.507812 209.707031 104.371094 209.707031 C 104.238281 209.707031 104.128906 209.652344 104.050781 209.542969 C 101.261719 205.371094 99.324219 200.835938 98.238281 195.9375 C 97.445312 199.425781 96.214844 202.75 94.546875 205.914062 C 93.414062 208.058594 92.085938 210.070312 90.554688 211.953125 L 90.359375 212.199219 C 90.289062 212.265625 90.203125 212.296875 90.105469 212.300781 C 90.007812 212.304688 89.921875 212.273438 89.847656 212.210938 C 89.769531 212.148438 89.726562 212.070312 89.710938 211.972656 C 89.695312 211.878906 89.710938 211.789062 89.761719 211.707031 C 91.335938 209.789062 92.710938 207.738281 93.878906 205.554688 L 93.878906 205.492188 C 90.824219 203.136719 88.160156 200.402344 85.886719 197.292969 C 86.777344 200.40625 87.273438 203.582031 87.375 206.820312 C 87.472656 210.058594 87.171875 213.257812 86.472656 216.421875 C 92.386719 215.121094 98.375 214.46875 104.433594 214.46875 C 110.492188 214.46875 116.480469 215.121094 122.394531 216.421875 C 121.691406 213.265625 121.382812 210.074219 121.472656 206.84375 C 121.5625 203.613281 122.050781 200.445312 122.929688 197.332031 C 120.664062 200.425781 118.007812 203.148438 114.96875 205.492188 Z M 118.753906 225.054688 L 90.070312 225.054688 C 89.648438 225.054688 89.238281 225.136719 88.847656 225.296875 C 88.457031 225.460938 88.109375 225.6875 87.808594 225.984375 C 87.507812 226.28125 87.273438 226.625 87.109375 227.015625 C 86.941406 227.402344 86.855469 227.808594 86.851562 228.230469 C 86.851562 228.65625 86.933594 229.066406 87.097656 229.460938 C 87.261719 229.851562 87.492188 230.199219 87.796875 230.5 C 88.097656 230.800781 88.445312 231.035156 88.839844 231.195312 C 89.234375 231.359375 89.644531 231.441406 90.070312 231.441406 L 118.753906 231.441406 C 119.179688 231.4375 119.589844 231.355469 119.984375 231.195312 C 120.378906 231.03125 120.726562 230.796875 121.027344 230.496094 C 121.328125 230.195312 121.5625 229.851562 121.726562 229.457031 C 121.890625 229.066406 121.972656 228.65625 121.972656 228.230469 C 121.96875 227.808594 121.886719 227.402344 121.71875 227.011719 C 121.554688 226.625 121.320312 226.28125 121.019531 225.984375 C 120.71875 225.683594 120.371094 225.457031 119.980469 225.296875 C 119.585938 225.132812 119.179688 225.054688 118.753906 225.054688 Z M 110.585938 194.074219 C 110.984375 194.074219 111.367188 193.996094 111.734375 193.84375 C 112.101562 193.695312 112.429688 193.476562 112.710938 193.195312 C 112.992188 192.914062 113.207031 192.59375 113.359375 192.226562 C 113.511719 191.859375 113.589844 191.476562 113.589844 191.078125 C 113.589844 190.683594 113.511719 190.300781 113.359375 189.933594 C 113.207031 189.566406 112.992188 189.242188 112.710938 188.964844 C 112.429688 188.683594 112.101562 188.464844 111.734375 188.3125 C 111.367188 188.164062 110.984375 188.085938 110.585938 188.085938 C 110.1875 188.085938 109.804688 188.164062 109.4375 188.3125 C 109.066406 188.464844 108.742188 188.683594 108.460938 188.964844 C 108.179688 189.242188 107.960938 189.566406 107.808594 189.933594 C 107.65625 190.300781 107.582031 190.683594 107.582031 191.078125 C 107.582031 191.476562 107.65625 191.859375 107.808594 192.226562 C 107.960938 192.59375 108.179688 192.914062 108.460938 193.195312 C 108.742188 193.476562 109.066406 193.695312 109.4375 193.84375 C 109.804688 193.996094 110.1875 194.074219 110.585938 194.074219 Z M 98.238281 194.074219 C 98.636719 194.0625 99.015625 193.976562 99.375 193.816406 C 99.738281 193.65625 100.054688 193.433594 100.328125 193.148438 C 100.601562 192.863281 100.8125 192.539062 100.957031 192.167969 C 101.101562 191.800781 101.167969 191.421875 101.160156 191.027344 C 101.152344 190.632812 101.070312 190.253906 100.914062 189.890625 C 100.757812 189.53125 100.535156 189.210938 100.253906 188.9375 C 99.96875 188.660156 99.644531 188.449219 99.277344 188.300781 C 98.910156 188.15625 98.527344 188.082031 98.132812 188.085938 C 97.734375 188.089844 97.355469 188.167969 96.988281 188.324219 C 96.625 188.476562 96.304688 188.691406 96.023438 188.972656 C 95.746094 189.253906 95.53125 189.574219 95.378906 189.941406 C 95.230469 190.304688 95.152344 190.683594 95.152344 191.078125 C 95.152344 191.484375 95.234375 191.871094 95.390625 192.246094 C 95.546875 192.617188 95.773438 192.945312 96.0625 193.226562 C 96.351562 193.507812 96.6875 193.722656 97.066406 193.871094 C 97.441406 194.015625 97.835938 194.085938 98.238281 194.074219 Z M 87.203125 194.515625 C 87.207031 194.117188 87.132812 193.734375 86.984375 193.367188 C 86.835938 192.996094 86.621094 192.671875 86.34375 192.386719 C 86.066406 192.105469 85.742188 191.886719 85.375 191.730469 C 85.007812 191.574219 84.625 191.496094 84.230469 191.488281 C 83.832031 191.484375 83.445312 191.558594 83.078125 191.707031 C 82.707031 191.855469 82.378906 192.066406 82.09375 192.34375 C 81.8125 192.621094 81.589844 192.945312 81.433594 193.308594 C 81.277344 193.675781 81.199219 194.054688 81.195312 194.453125 C 81.191406 194.847656 81.261719 195.230469 81.410156 195.601562 C 81.558594 195.96875 81.773438 196.292969 82.050781 196.578125 C 82.332031 196.863281 82.652344 197.082031 83.019531 197.238281 C 83.386719 197.394531 83.769531 197.472656 84.167969 197.476562 C 84.5625 197.476562 84.941406 197.402344 85.308594 197.25 C 85.671875 197.101562 85.996094 196.886719 86.277344 196.609375 C 86.558594 196.332031 86.773438 196.011719 86.925781 195.648438 C 87.078125 195.285156 87.15625 194.90625 87.160156 194.515625 Z M 124.699219 191.519531 C 124.300781 191.519531 123.917969 191.597656 123.550781 191.75 C 123.183594 191.898438 122.859375 192.117188 122.574219 192.398438 C 122.292969 192.679688 122.078125 193 121.925781 193.367188 C 121.773438 193.734375 121.695312 194.117188 121.695312 194.515625 C 121.695312 194.910156 121.773438 195.292969 121.925781 195.660156 C 122.078125 196.027344 122.292969 196.351562 122.574219 196.628906 C 122.859375 196.910156 123.183594 197.128906 123.550781 197.28125 C 123.917969 197.429688 124.300781 197.507812 124.699219 197.507812 C 125.097656 197.507812 125.480469 197.429688 125.847656 197.28125 C 126.21875 197.128906 126.542969 196.910156 126.824219 196.628906 C 127.105469 196.351562 127.324219 196.027344 127.476562 195.660156 C 127.628906 195.292969 127.703125 194.910156 127.703125 194.515625 C 127.707031 194.113281 127.628906 193.726562 127.472656 193.355469 C 127.320312 192.988281 127.097656 192.660156 126.8125 192.378906 C 126.527344 192.097656 126.195312 191.882812 125.824219 191.734375 C 125.449219 191.585938 125.0625 191.511719 124.660156 191.519531 Z M 124.699219 191.519531 " fill-opacity="1" fill-rule="nonzero"/></g><g clip-path="url(#96d181dad7)"><path fill="#3084b2" d="M 168.980469 306.097656 C 147.039062 305.109375 142.847656 281.925781 124.113281 286.359375 C 124.113281 286.359375 136.929688 285.980469 141.738281 298.691406 C 141.738281 298.691406 123.621094 294.867188 112.527344 303.875 C 112.527344 303.875 136.070312 299.34375 148.023438 306.113281 C 159.980469 312.886719 196.589844 321.15625 191.164062 266.601562 C 191.164062 266.601562 190.917969 307.085938 168.980469 306.097656 " fill-opacity="1" fill-rule="nonzero"/></g><g clip-path="url(#465076771c)"><path fill="#3084b2" d="M 150.359375 277.777344 C 149.019531 276.953125 147.582031 276.199219 146.035156 276.066406 C 148.617188 277.664062 150.234375 280.117188 151.625 282.582031 C 152.976562 285.089844 154.082031 287.703125 154.9375 290.4375 C 155.191406 291.097656 155.371094 291.796875 155.566406 292.488281 L 156.175781 294.542969 L 157.1875 298.734375 L 157.652344 300.996094 C 159.609375 302.039062 161.730469 302.886719 164.089844 303.441406 L 163.769531 301.785156 C 163.398438 300.292969 163.011719 298.800781 162.601562 297.316406 C 162.144531 295.839844 161.632812 294.375 161.117188 292.917969 C 160.496094 291.484375 159.949219 290.035156 159.21875 288.648438 C 157.84375 285.851562 156.085938 283.179688 153.949219 280.859375 C 152.898438 279.6875 151.65625 278.660156 150.359375 277.777344 " fill-opacity="1" fill-rule="nonzero"/></g></svg>