<svg xmlns="http://www.w3.org/2000/svg" xmlns:xlink="http://www.w3.org/1999/xlink" width="500" zoomAndPan="magnify" viewBox="0 0 375 374.999991" height="500" preserveAspectRatio="xMidYMid meet" version="1.0"><defs><clipPath id="56db96ac6f"><path d="M 187.5 0 C 83.945312 0 0 83.945312 0 187.5 C 0 291.054688 83.945312 375 187.5 375 C 291.054688 375 375 291.054688 375 187.5 C 375 83.945312 291.054688 0 187.5 0 " clip-rule="nonzero"/></clipPath><clipPath id="02841cf4be"><path d="M 70.507812 53.222656 L 311.257812 53.222656 L 311.257812 293.972656 L 70.507812 293.972656 Z M 70.507812 53.222656 " clip-rule="nonzero"/></clipPath><clipPath id="95167734f3"><path d="M 136.625 63.308594 L 184.625 63.308594 L 184.625 109 L 136.625 109 Z M 136.625 63.308594 " clip-rule="nonzero"/></clipPath><clipPath id="633dc57b3e"><path d="M 253.691406 118.132812 L 301.691406 118.132812 L 301.691406 163.882812 L 253.691406 163.882812 Z M 253.691406 118.132812 " clip-rule="nonzero"/></clipPath><clipPath id="0e95adae08"><path d="M 78.886719 181 L 126.886719 181 L 126.886719 226.339844 L 78.886719 226.339844 Z M 78.886719 181 " clip-rule="nonzero"/></clipPath><clipPath id="d89912c12d"><path d="M 57.453125 182.046875 L 211.953125 182.046875 L 211.953125 327.503906 L 57.453125 327.503906 Z M 57.453125 182.046875 " clip-rule="nonzero"/></clipPath><clipPath id="f04b8fcf49"><path d="M 123.617188 197.5 L 211.953125 197.5 L 211.953125 327.503906 L 123.617188 327.503906 Z M 123.617188 197.5 " clip-rule="nonzero"/></clipPath><clipPath id="1d6c4e09a8"><path d="M 73.816406 188.535156 L 211.953125 188.535156 L 211.953125 326.996094 L 73.816406 326.996094 Z M 73.816406 188.535156 " clip-rule="nonzero"/></clipPath><clipPath id="2fafb5548a"><path d="M 57.453125 188 L 174 188 L 174 316 L 57.453125 316 Z M 57.453125 188 " clip-rule="nonzero"/></clipPath><clipPath id="084ffee97c"><path d="M 179 223 L 231 223 L 231 275 L 179 275 Z M 179 223 " clip-rule="nonzero"/></clipPath><clipPath id="cd598f529d"><path d="M 177.535156 230.203125 L 226.539062 219.085938 L 237.15625 265.898438 L 188.148438 277.011719 Z M 177.535156 230.203125 " clip-rule="nonzero"/></clipPath><clipPath id="2e7082a501"><path d="M 177.535156 230.203125 L 226.539062 219.085938 L 237.15625 265.898438 L 188.148438 277.011719 Z M 177.535156 230.203125 " clip-rule="nonzero"/></clipPath></defs><g clip-path="url(#56db96ac6f)"><rect x="-37.5" width="450" fill="#ffffff" y="-37.499999" height="449.999989" fill-opacity="1"/><path stroke-linecap="butt" transform="matrix(0.75, 0, 0, 0.75, 0.0000045, 0)" fill="none" stroke-linejoin="miter" d="M 249.999994 0 C 111.927078 0 -0.000006 111.927084 -0.000006 250 C -0.000006 388.072917 111.927078 500.000001 249.999994 500.000001 C 388.072911 500.000001 499.999995 388.072917 499.999995 250 C 499.999995 111.927084 388.072911 0 249.999994 0 " stroke="#000000" stroke-width="2" stroke-opacity="1" stroke-miterlimit="4"/></g><path fill="#ffffff" d="M 249.117188 231.832031 L 249.117188 173.605469 L 307.34375 173.605469 L 307.34375 231.832031 Z M 307.34375 57.136719 L 249.117188 57.136719 L 249.117188 115.378906 L 307.34375 115.378906 Z M 190.890625 290.0625 L 249.117188 290.0625 L 249.117188 231.832031 L 190.890625 231.832031 Z M 190.890625 115.378906 L 190.890625 173.605469 L 249.117188 173.605469 L 249.117188 115.378906 Z M 132.648438 173.605469 L 132.648438 231.832031 L 190.890625 231.832031 L 190.890625 173.605469 Z M 190.890625 57.136719 L 132.648438 57.136719 L 132.648438 115.378906 L 190.890625 115.378906 Z M 74.421875 290.0625 L 132.648438 290.0625 L 132.648438 231.832031 L 74.421875 231.832031 Z M 74.421875 115.378906 L 74.421875 173.605469 L 132.648438 173.605469 L 132.648438 115.378906 Z M 74.421875 115.378906 " fill-opacity="1" fill-rule="nonzero"/><g clip-path="url(#02841cf4be)"><path fill="#000000" d="M 307.34375 53.222656 L 74.421875 53.222656 C 72.261719 53.222656 70.507812 54.976562 70.507812 57.136719 L 70.507812 290.0625 C 70.507812 292.222656 72.261719 293.976562 74.421875 293.976562 L 307.34375 293.976562 C 309.507812 293.976562 311.257812 292.222656 311.257812 290.0625 L 311.257812 57.136719 C 311.257812 54.976562 309.507812 53.222656 307.34375 53.222656 Z M 78.335938 119.292969 L 128.734375 119.292969 L 128.734375 169.691406 L 78.335938 169.691406 Z M 245.203125 169.691406 L 194.804688 169.691406 L 194.804688 119.292969 L 245.203125 119.292969 Z M 136.566406 177.519531 L 186.972656 177.519531 L 186.972656 227.917969 L 136.566406 227.917969 Z M 186.972656 111.460938 L 136.566406 111.460938 L 136.566406 61.050781 L 186.972656 61.050781 Z M 194.804688 235.746094 L 245.203125 235.746094 L 245.203125 286.144531 L 194.804688 286.144531 Z M 253.03125 227.917969 L 253.03125 177.519531 L 303.429688 177.519531 L 303.429688 227.917969 Z M 303.429688 111.460938 L 253.03125 111.460938 L 253.03125 61.050781 L 303.429688 61.050781 Z M 78.335938 235.746094 L 128.734375 235.746094 L 128.734375 286.144531 L 78.335938 286.144531 Z M 78.335938 235.746094 " fill-opacity="1" fill-rule="nonzero"/></g><g clip-path="url(#95167734f3)"><path fill="#3084b2" d="M 179.144531 94.324219 C 178.300781 96.792969 177.0625 99.042969 175.429688 101.078125 L 145.820312 101.078125 C 144.1875 99.042969 142.949219 96.792969 142.105469 94.324219 C 148.203125 92.960938 154.375 92.28125 160.625 92.28125 C 166.875 92.28125 173.046875 92.960938 179.144531 94.324219 Z M 171.519531 81.914062 L 171.519531 81.976562 C 172.726562 84.234375 174.144531 86.355469 175.769531 88.335938 C 175.84375 88.414062 175.882812 88.507812 175.882812 88.617188 C 175.882812 88.726562 175.84375 88.820312 175.769531 88.898438 C 175.695312 88.960938 175.609375 88.992188 175.511719 88.992188 C 175.386719 88.992188 175.285156 88.941406 175.207031 88.84375 L 175.003906 88.589844 C 173.449219 86.667969 172.089844 84.613281 170.925781 82.429688 L 170.863281 82.316406 C 169.125 79.054688 167.835938 75.628906 166.996094 72.03125 C 165.851562 77.101562 163.824219 81.792969 160.910156 86.097656 C 160.875 86.152344 160.824219 86.195312 160.765625 86.222656 C 160.710938 86.253906 160.648438 86.269531 160.582031 86.269531 C 160.515625 86.269531 160.457031 86.253906 160.398438 86.222656 C 160.339844 86.195312 160.289062 86.152344 160.253906 86.097656 C 157.371094 81.785156 155.371094 77.097656 154.253906 72.03125 C 153.433594 75.636719 152.160156 79.074219 150.441406 82.347656 C 149.273438 84.5625 147.898438 86.644531 146.320312 88.589844 L 146.117188 88.84375 C 146.042969 88.914062 145.957031 88.949219 145.855469 88.949219 C 145.753906 88.953125 145.667969 88.921875 145.589844 88.859375 C 145.511719 88.792969 145.464844 88.710938 145.449219 88.613281 C 145.429688 88.515625 145.449219 88.421875 145.503906 88.335938 C 147.128906 86.355469 148.542969 84.234375 149.75 81.976562 L 149.75 81.914062 C 146.597656 79.476562 143.847656 76.648438 141.5 73.433594 C 142.421875 76.652344 142.933594 79.9375 143.035156 83.285156 C 143.136719 86.632812 142.828125 89.941406 142.105469 93.210938 C 148.210938 91.867188 154.390625 91.191406 160.644531 91.191406 C 166.898438 91.191406 173.082031 91.867188 179.1875 93.210938 C 178.460938 89.949219 178.140625 86.648438 178.234375 83.308594 C 178.328125 79.96875 178.832031 76.691406 179.738281 73.476562 C 177.398438 76.671875 174.660156 79.484375 171.519531 81.914062 Z M 175.429688 102.136719 L 145.820312 102.136719 C 145.382812 102.136719 144.960938 102.222656 144.558594 102.390625 C 144.152344 102.554688 143.796875 102.792969 143.484375 103.101562 C 143.175781 103.40625 142.933594 103.761719 142.761719 104.164062 C 142.589844 104.566406 142.503906 104.984375 142.496094 105.421875 C 142.496094 105.863281 142.582031 106.285156 142.75 106.691406 C 142.917969 107.097656 143.160156 107.457031 143.472656 107.769531 C 143.78125 108.078125 144.140625 108.320312 144.550781 108.488281 C 144.957031 108.65625 145.378906 108.742188 145.820312 108.742188 L 175.429688 108.742188 C 175.867188 108.738281 176.292969 108.652344 176.699219 108.484375 C 177.105469 108.316406 177.464844 108.078125 177.777344 107.765625 C 178.085938 107.453125 178.328125 107.097656 178.496094 106.691406 C 178.664062 106.285156 178.75 105.863281 178.753906 105.421875 C 178.746094 104.984375 178.660156 104.566406 178.488281 104.164062 C 178.320312 103.761719 178.078125 103.40625 177.765625 103.097656 C 177.457031 102.789062 177.097656 102.550781 176.691406 102.386719 C 176.289062 102.21875 175.867188 102.136719 175.429688 102.136719 Z M 166.996094 70.105469 C 167.40625 70.105469 167.804688 70.023438 168.183594 69.867188 C 168.5625 69.710938 168.898438 69.488281 169.1875 69.199219 C 169.480469 68.90625 169.703125 68.574219 169.859375 68.191406 C 170.019531 67.8125 170.097656 67.417969 170.097656 67.007812 C 170.097656 66.597656 170.019531 66.203125 169.859375 65.824219 C 169.703125 65.445312 169.480469 65.109375 169.1875 64.820312 C 168.898438 64.53125 168.5625 64.304688 168.183594 64.148438 C 167.804688 63.992188 167.40625 63.914062 166.996094 63.914062 C 166.585938 63.914062 166.191406 63.992188 165.808594 64.148438 C 165.429688 64.304688 165.09375 64.53125 164.804688 64.820312 C 164.511719 65.109375 164.289062 65.445312 164.132812 65.824219 C 163.972656 66.203125 163.894531 66.597656 163.894531 67.007812 C 163.894531 67.417969 163.972656 67.8125 164.132812 68.191406 C 164.289062 68.574219 164.511719 68.90625 164.804688 69.199219 C 165.09375 69.488281 165.429688 69.710938 165.808594 69.867188 C 166.191406 70.023438 166.585938 70.105469 166.996094 70.105469 Z M 154.253906 70.105469 C 154.660156 70.09375 155.050781 70.003906 155.425781 69.839844 C 155.800781 69.671875 156.128906 69.441406 156.410156 69.148438 C 156.691406 68.851562 156.90625 68.515625 157.058594 68.136719 C 157.207031 67.753906 157.277344 67.363281 157.269531 66.953125 C 157.261719 66.546875 157.175781 66.15625 157.015625 65.78125 C 156.851562 65.40625 156.625 65.078125 156.332031 64.792969 C 156.039062 64.507812 155.703125 64.289062 155.324219 64.136719 C 154.941406 63.984375 154.550781 63.910156 154.140625 63.914062 C 153.730469 63.917969 153.339844 64 152.960938 64.15625 C 152.585938 64.316406 152.253906 64.539062 151.964844 64.832031 C 151.679688 65.121094 151.457031 65.453125 151.300781 65.832031 C 151.144531 66.207031 151.066406 66.601562 151.066406 67.007812 C 151.066406 67.425781 151.148438 67.828125 151.3125 68.214844 C 151.472656 68.597656 151.707031 68.9375 152.003906 69.226562 C 152.304688 69.519531 152.648438 69.742188 153.039062 69.894531 C 153.429688 70.046875 153.835938 70.117188 154.253906 70.105469 Z M 142.859375 70.558594 C 142.863281 70.148438 142.789062 69.753906 142.632812 69.371094 C 142.480469 68.992188 142.261719 68.65625 141.972656 68.363281 C 141.683594 68.070312 141.351562 67.839844 140.972656 67.679688 C 140.59375 67.519531 140.199219 67.4375 139.789062 67.433594 C 139.378906 67.429688 138.980469 67.503906 138.601562 67.65625 C 138.21875 67.808594 137.882812 68.03125 137.585938 68.316406 C 137.292969 68.605469 137.066406 68.9375 136.90625 69.3125 C 136.742188 69.691406 136.660156 70.085938 136.65625 70.496094 C 136.652344 70.90625 136.726562 71.300781 136.878906 71.683594 C 137.035156 72.0625 137.253906 72.402344 137.542969 72.695312 C 137.832031 72.988281 138.164062 73.214844 138.542969 73.375 C 138.917969 73.535156 139.316406 73.617188 139.726562 73.621094 C 140.132812 73.621094 140.527344 73.546875 140.902344 73.390625 C 141.28125 73.234375 141.613281 73.015625 141.902344 72.726562 C 142.191406 72.441406 142.417969 72.109375 142.574219 71.734375 C 142.734375 71.359375 142.8125 70.96875 142.816406 70.558594 Z M 181.566406 67.464844 C 181.15625 67.464844 180.757812 67.542969 180.378906 67.699219 C 180 67.855469 179.664062 68.082031 179.375 68.371094 C 179.082031 68.660156 178.859375 68.996094 178.703125 69.375 C 178.542969 69.753906 178.464844 70.148438 178.464844 70.558594 C 178.464844 70.96875 178.542969 71.363281 178.703125 71.742188 C 178.859375 72.125 179.082031 72.457031 179.375 72.75 C 179.664062 73.039062 180 73.261719 180.378906 73.417969 C 180.757812 73.578125 181.15625 73.65625 181.566406 73.65625 C 181.976562 73.65625 182.375 73.578125 182.753906 73.417969 C 183.132812 73.261719 183.46875 73.039062 183.757812 72.75 C 184.050781 72.457031 184.273438 72.125 184.429688 71.742188 C 184.589844 71.363281 184.667969 70.96875 184.667969 70.558594 C 184.667969 70.144531 184.589844 69.746094 184.429688 69.363281 C 184.269531 68.980469 184.042969 68.644531 183.746094 68.351562 C 183.453125 68.0625 183.109375 67.839844 182.726562 67.683594 C 182.339844 67.53125 181.9375 67.457031 181.523438 67.464844 Z M 181.566406 67.464844 " fill-opacity="1" fill-rule="nonzero"/></g><g clip-path="url(#633dc57b3e)"><path fill="#3084b2" d="M 296.210938 149.148438 C 295.367188 151.613281 294.128906 153.863281 292.496094 155.898438 L 262.886719 155.898438 C 261.253906 153.863281 260.015625 151.613281 259.171875 149.148438 C 265.269531 147.785156 271.441406 147.105469 277.691406 147.105469 C 283.941406 147.105469 290.113281 147.785156 296.210938 149.148438 Z M 288.585938 136.734375 L 288.585938 136.796875 C 289.792969 139.058594 291.210938 141.175781 292.835938 143.15625 C 292.910156 143.234375 292.949219 143.328125 292.949219 143.4375 C 292.949219 143.546875 292.910156 143.640625 292.835938 143.71875 C 292.761719 143.785156 292.675781 143.816406 292.578125 143.816406 C 292.453125 143.8125 292.351562 143.765625 292.273438 143.667969 L 292.070312 143.414062 C 290.515625 141.488281 289.15625 139.4375 287.992188 137.253906 L 287.929688 137.136719 C 286.191406 133.878906 284.902344 130.449219 284.0625 126.855469 C 282.917969 131.925781 280.890625 136.613281 277.976562 140.921875 C 277.941406 140.976562 277.890625 141.015625 277.835938 141.046875 C 277.777344 141.078125 277.714844 141.089844 277.648438 141.089844 C 277.582031 141.089844 277.523438 141.078125 277.464844 141.046875 C 277.40625 141.015625 277.355469 140.976562 277.320312 140.921875 C 274.4375 136.609375 272.4375 131.917969 271.320312 126.855469 C 270.5 130.460938 269.226562 133.898438 267.507812 137.167969 C 266.339844 139.386719 264.964844 141.464844 263.386719 143.414062 L 263.183594 143.667969 C 263.109375 143.734375 263.023438 143.769531 262.921875 143.773438 C 262.820312 143.773438 262.734375 143.746094 262.65625 143.679688 C 262.578125 143.617188 262.53125 143.535156 262.515625 143.433594 C 262.496094 143.335938 262.515625 143.242188 262.570312 143.15625 C 264.195312 141.175781 265.609375 139.058594 266.816406 136.796875 L 266.816406 136.734375 C 263.664062 134.296875 260.914062 131.472656 258.566406 128.253906 C 259.488281 131.476562 260 134.757812 260.101562 138.105469 C 260.203125 141.453125 259.894531 144.761719 259.171875 148.035156 C 265.277344 146.6875 271.457031 146.015625 277.710938 146.015625 C 283.964844 146.015625 290.148438 146.6875 296.253906 148.035156 C 295.527344 144.773438 295.207031 141.472656 295.300781 138.132812 C 295.394531 134.789062 295.898438 131.511719 296.804688 128.296875 C 294.464844 131.496094 291.726562 134.308594 288.585938 136.734375 Z M 292.496094 156.960938 L 262.886719 156.960938 C 262.449219 156.960938 262.027344 157.042969 261.625 157.210938 C 261.21875 157.378906 260.863281 157.617188 260.550781 157.921875 C 260.242188 158.230469 260 158.585938 259.828125 158.988281 C 259.65625 159.390625 259.570312 159.808594 259.5625 160.246094 C 259.5625 160.683594 259.648438 161.109375 259.816406 161.515625 C 259.984375 161.921875 260.226562 162.28125 260.539062 162.589844 C 260.847656 162.902344 261.207031 163.140625 261.617188 163.308594 C 262.023438 163.480469 262.445312 163.5625 262.886719 163.5625 L 292.496094 163.5625 C 292.933594 163.5625 293.359375 163.476562 293.765625 163.308594 C 294.171875 163.140625 294.53125 162.898438 294.84375 162.589844 C 295.152344 162.277344 295.394531 161.917969 295.5625 161.511719 C 295.730469 161.105469 295.816406 160.683594 295.820312 160.246094 C 295.8125 159.808594 295.726562 159.386719 295.554688 158.984375 C 295.386719 158.582031 295.144531 158.226562 294.832031 157.917969 C 294.523438 157.613281 294.164062 157.375 293.757812 157.207031 C 293.355469 157.042969 292.933594 156.960938 292.496094 156.960938 Z M 284.0625 124.925781 C 284.472656 124.925781 284.871094 124.847656 285.25 124.691406 C 285.628906 124.535156 285.964844 124.308594 286.253906 124.019531 C 286.546875 123.730469 286.769531 123.394531 286.925781 123.015625 C 287.085938 122.636719 287.164062 122.242188 287.164062 121.832031 C 287.164062 121.421875 287.085938 121.027344 286.929688 120.644531 C 286.769531 120.265625 286.546875 119.933594 286.253906 119.640625 C 285.964844 119.351562 285.628906 119.128906 285.25 118.972656 C 284.871094 118.8125 284.472656 118.734375 284.0625 118.734375 C 283.652344 118.734375 283.257812 118.8125 282.875 118.972656 C 282.496094 119.128906 282.160156 119.351562 281.871094 119.640625 C 281.578125 119.933594 281.355469 120.265625 281.199219 120.644531 C 281.039062 121.027344 280.960938 121.421875 280.960938 121.832031 C 280.960938 122.242188 281.039062 122.636719 281.199219 123.015625 C 281.355469 123.394531 281.578125 123.730469 281.871094 124.019531 C 282.160156 124.308594 282.496094 124.535156 282.875 124.691406 C 283.257812 124.847656 283.652344 124.925781 284.0625 124.925781 Z M 271.320312 124.925781 C 271.726562 124.914062 272.121094 124.828125 272.492188 124.660156 C 272.867188 124.496094 273.195312 124.265625 273.476562 123.96875 C 273.757812 123.675781 273.972656 123.335938 274.125 122.957031 C 274.273438 122.578125 274.34375 122.183594 274.335938 121.777344 C 274.328125 121.367188 274.242188 120.976562 274.082031 120.601562 C 273.917969 120.226562 273.691406 119.898438 273.398438 119.613281 C 273.105469 119.328125 272.769531 119.109375 272.390625 118.960938 C 272.007812 118.808594 271.617188 118.734375 271.207031 118.738281 C 270.796875 118.742188 270.40625 118.820312 270.027344 118.980469 C 269.652344 119.140625 269.320312 119.363281 269.03125 119.652344 C 268.746094 119.941406 268.523438 120.277344 268.367188 120.652344 C 268.210938 121.03125 268.132812 121.421875 268.132812 121.832031 C 268.132812 122.25 268.214844 122.648438 268.378906 123.035156 C 268.539062 123.421875 268.773438 123.757812 269.070312 124.050781 C 269.371094 124.339844 269.714844 124.5625 270.105469 124.714844 C 270.496094 124.867188 270.902344 124.9375 271.320312 124.925781 Z M 259.925781 125.382812 C 259.929688 124.972656 259.855469 124.574219 259.699219 124.195312 C 259.546875 123.8125 259.328125 123.476562 259.039062 123.183594 C 258.75 122.890625 258.417969 122.664062 258.039062 122.503906 C 257.660156 122.34375 257.265625 122.257812 256.855469 122.253906 C 256.445312 122.25 256.046875 122.324219 255.667969 122.480469 C 255.285156 122.632812 254.949219 122.851562 254.652344 123.140625 C 254.359375 123.425781 254.132812 123.757812 253.972656 124.136719 C 253.808594 124.515625 253.726562 124.90625 253.722656 125.320312 C 253.71875 125.730469 253.792969 126.125 253.945312 126.503906 C 254.101562 126.886719 254.320312 127.222656 254.609375 127.515625 C 254.898438 127.808594 255.230469 128.035156 255.609375 128.199219 C 255.984375 128.359375 256.382812 128.441406 256.792969 128.445312 C 257.199219 128.445312 257.59375 128.367188 257.96875 128.210938 C 258.347656 128.058594 258.679688 127.835938 258.96875 127.550781 C 259.257812 127.261719 259.484375 126.929688 259.640625 126.554688 C 259.800781 126.179688 259.878906 125.789062 259.882812 125.382812 Z M 298.632812 122.285156 C 298.222656 122.285156 297.824219 122.363281 297.445312 122.523438 C 297.066406 122.679688 296.730469 122.902344 296.441406 123.191406 C 296.148438 123.484375 295.925781 123.816406 295.769531 124.199219 C 295.609375 124.578125 295.53125 124.972656 295.53125 125.382812 C 295.53125 125.792969 295.609375 126.1875 295.769531 126.566406 C 295.925781 126.945312 296.148438 127.28125 296.441406 127.570312 C 296.730469 127.859375 297.066406 128.085938 297.445312 128.242188 C 297.824219 128.398438 298.222656 128.476562 298.632812 128.476562 C 299.042969 128.476562 299.441406 128.398438 299.820312 128.242188 C 300.199219 128.085938 300.535156 127.859375 300.824219 127.570312 C 301.117188 127.28125 301.339844 126.945312 301.496094 126.566406 C 301.65625 126.1875 301.734375 125.792969 301.734375 125.382812 C 301.734375 124.96875 301.65625 124.570312 301.496094 124.1875 C 301.335938 123.804688 301.109375 123.464844 300.8125 123.175781 C 300.519531 122.882812 300.175781 122.660156 299.792969 122.507812 C 299.40625 122.351562 299.003906 122.28125 298.589844 122.285156 Z M 298.632812 122.285156 " fill-opacity="1" fill-rule="nonzero"/></g><g clip-path="url(#0e95adae08)"><path fill="#3084b2" d="M 121.40625 211.605469 C 120.5625 214.074219 119.324219 216.324219 117.691406 218.359375 L 88.085938 218.359375 C 86.449219 216.324219 85.210938 214.074219 84.367188 211.605469 C 90.464844 210.246094 96.636719 209.5625 102.886719 209.5625 C 109.136719 209.5625 115.308594 210.246094 121.40625 211.605469 Z M 113.78125 199.195312 L 113.78125 199.257812 C 114.988281 201.515625 116.40625 203.636719 118.03125 205.617188 C 118.105469 205.695312 118.144531 205.789062 118.144531 205.898438 C 118.144531 206.007812 118.105469 206.101562 118.03125 206.179688 C 117.957031 206.242188 117.875 206.277344 117.777344 206.273438 C 117.648438 206.273438 117.546875 206.222656 117.46875 206.125 L 117.265625 205.871094 C 115.710938 203.949219 114.351562 201.894531 113.1875 199.714844 L 113.125 199.597656 C 111.386719 196.339844 110.097656 192.910156 109.257812 189.316406 C 108.113281 194.386719 106.085938 199.074219 103.175781 203.382812 C 103.136719 203.433594 103.089844 203.476562 103.03125 203.507812 C 102.972656 203.535156 102.910156 203.550781 102.84375 203.550781 C 102.78125 203.550781 102.71875 203.535156 102.660156 203.507812 C 102.601562 203.476562 102.554688 203.433594 102.515625 203.382812 C 99.632812 199.066406 97.632812 194.378906 96.515625 189.316406 C 95.695312 192.917969 94.425781 196.355469 92.703125 199.628906 C 91.535156 201.84375 90.164062 203.925781 88.582031 205.871094 L 88.382812 206.125 C 88.308594 206.195312 88.21875 206.230469 88.117188 206.234375 C 88.019531 206.234375 87.929688 206.203125 87.851562 206.140625 C 87.773438 206.078125 87.726562 205.996094 87.710938 205.894531 C 87.695312 205.796875 87.710938 205.703125 87.765625 205.617188 C 89.390625 203.636719 90.808594 201.515625 92.011719 199.257812 L 92.011719 199.195312 C 88.859375 196.757812 86.109375 193.929688 83.761719 190.714844 C 84.683594 193.933594 85.195312 197.21875 85.296875 200.566406 C 85.402344 203.914062 85.089844 207.222656 84.367188 210.492188 C 90.472656 209.148438 96.65625 208.476562 102.910156 208.476562 C 109.164062 208.476562 115.34375 209.148438 121.449219 210.492188 C 120.722656 207.234375 120.40625 203.929688 120.5 200.589844 C 120.589844 197.25 121.09375 193.972656 122.003906 190.757812 C 119.660156 193.957031 116.921875 196.769531 113.78125 199.195312 Z M 117.691406 219.417969 L 88.085938 219.417969 C 87.644531 219.421875 87.226562 219.503906 86.820312 219.671875 C 86.417969 219.839844 86.058594 220.074219 85.746094 220.382812 C 85.4375 220.691406 85.195312 221.042969 85.023438 221.445312 C 84.855469 221.847656 84.765625 222.269531 84.761719 222.707031 C 84.761719 223.144531 84.84375 223.566406 85.011719 223.976562 C 85.183594 224.382812 85.421875 224.738281 85.734375 225.050781 C 86.046875 225.363281 86.40625 225.601562 86.8125 225.769531 C 87.21875 225.9375 87.644531 226.023438 88.085938 226.023438 L 117.691406 226.023438 C 118.132812 226.023438 118.554688 225.9375 118.960938 225.769531 C 119.367188 225.597656 119.726562 225.359375 120.039062 225.046875 C 120.351562 224.738281 120.589844 224.378906 120.757812 223.972656 C 120.929688 223.566406 121.011719 223.144531 121.015625 222.707031 C 121.011719 222.269531 120.921875 221.847656 120.753906 221.445312 C 120.582031 221.042969 120.339844 220.6875 120.03125 220.378906 C 119.71875 220.070312 119.359375 219.835938 118.957031 219.667969 C 118.550781 219.503906 118.128906 219.417969 117.691406 219.417969 Z M 109.257812 187.386719 C 109.671875 187.386719 110.066406 187.308594 110.445312 187.152344 C 110.824219 186.992188 111.160156 186.769531 111.453125 186.480469 C 111.742188 186.1875 111.964844 185.855469 112.125 185.476562 C 112.28125 185.097656 112.359375 184.703125 112.359375 184.289062 C 112.359375 183.878906 112.28125 183.484375 112.125 183.105469 C 111.964844 182.726562 111.742188 182.390625 111.453125 182.101562 C 111.160156 181.8125 110.824219 181.589844 110.445312 181.429688 C 110.066406 181.273438 109.671875 181.195312 109.257812 181.195312 C 108.847656 181.195312 108.453125 181.273438 108.074219 181.429688 C 107.691406 181.589844 107.355469 181.8125 107.066406 182.101562 C 106.777344 182.390625 106.550781 182.726562 106.394531 183.105469 C 106.238281 183.484375 106.160156 183.878906 106.160156 184.289062 C 106.160156 184.703125 106.238281 185.097656 106.394531 185.476562 C 106.550781 185.855469 106.777344 186.1875 107.066406 186.480469 C 107.355469 186.769531 107.691406 186.992188 108.074219 187.152344 C 108.453125 187.308594 108.847656 187.386719 109.257812 187.386719 Z M 96.515625 187.386719 C 96.925781 187.375 97.316406 187.285156 97.6875 187.121094 C 98.0625 186.957031 98.390625 186.726562 98.671875 186.429688 C 98.957031 186.136719 99.171875 185.796875 99.320312 185.417969 C 99.46875 185.039062 99.539062 184.644531 99.53125 184.234375 C 99.523438 183.828125 99.4375 183.4375 99.277344 183.0625 C 99.113281 182.6875 98.886719 182.359375 98.59375 182.074219 C 98.300781 181.789062 97.964844 181.570312 97.585938 181.417969 C 97.207031 181.265625 96.8125 181.195312 96.402344 181.195312 C 95.996094 181.199219 95.601562 181.28125 95.226562 181.441406 C 94.847656 181.597656 94.515625 181.824219 94.230469 182.113281 C 93.941406 182.402344 93.71875 182.734375 93.5625 183.113281 C 93.40625 183.492188 93.332031 183.882812 93.328125 184.289062 C 93.328125 184.707031 93.410156 185.109375 93.574219 185.496094 C 93.738281 185.878906 93.96875 186.21875 94.269531 186.511719 C 94.566406 186.800781 94.914062 187.023438 95.304688 187.175781 C 95.691406 187.328125 96.097656 187.398438 96.515625 187.386719 Z M 85.121094 187.84375 C 85.125 187.429688 85.050781 187.035156 84.898438 186.65625 C 84.742188 186.273438 84.523438 185.9375 84.234375 185.644531 C 83.949219 185.351562 83.613281 185.125 83.238281 184.964844 C 82.859375 184.800781 82.464844 184.71875 82.050781 184.714844 C 81.640625 184.710938 81.246094 184.785156 80.863281 184.9375 C 80.480469 185.09375 80.144531 185.3125 79.851562 185.597656 C 79.558594 185.886719 79.328125 186.21875 79.167969 186.597656 C 79.007812 186.972656 78.925781 187.367188 78.917969 187.777344 C 78.914062 188.1875 78.988281 188.585938 79.144531 188.964844 C 79.296875 189.347656 79.515625 189.683594 79.804688 189.976562 C 80.09375 190.269531 80.425781 190.496094 80.804688 190.65625 C 81.183594 190.820312 81.578125 190.902344 81.988281 190.90625 C 82.394531 190.90625 82.789062 190.828125 83.167969 190.671875 C 83.542969 190.515625 83.875 190.296875 84.167969 190.007812 C 84.457031 189.722656 84.679688 189.390625 84.835938 189.015625 C 84.996094 188.640625 85.074219 188.25 85.078125 187.84375 Z M 123.828125 184.746094 C 123.417969 184.746094 123.023438 184.824219 122.640625 184.980469 C 122.261719 185.140625 121.925781 185.363281 121.636719 185.652344 C 121.34375 185.945312 121.121094 186.277344 120.964844 186.65625 C 120.808594 187.035156 120.726562 187.429688 120.726562 187.84375 C 120.726562 188.253906 120.808594 188.648438 120.964844 189.027344 C 121.121094 189.40625 121.34375 189.742188 121.636719 190.03125 C 121.925781 190.320312 122.261719 190.542969 122.640625 190.703125 C 123.023438 190.859375 123.417969 190.9375 123.828125 190.9375 C 124.242188 190.9375 124.636719 190.859375 125.015625 190.703125 C 125.394531 190.542969 125.730469 190.320312 126.023438 190.03125 C 126.3125 189.742188 126.535156 189.40625 126.695312 189.027344 C 126.851562 188.648438 126.929688 188.253906 126.929688 187.84375 C 126.929688 187.425781 126.851562 187.027344 126.691406 186.644531 C 126.535156 186.261719 126.304688 185.925781 126.011719 185.636719 C 125.714844 185.34375 125.375 185.121094 124.988281 184.96875 C 124.601562 184.8125 124.203125 184.738281 123.785156 184.746094 Z M 123.828125 184.746094 " fill-opacity="1" fill-rule="nonzero"/></g><g clip-path="url(#d89912c12d)"><path fill="#3573a6" d="M 211.964844 300.039062 C 211.964844 304.675781 210.214844 309.140625 207.066406 312.546875 L 202.585938 317.390625 C 196.84375 323.605469 188.113281 326.09375 179.953125 323.851562 L 150.265625 315.679688 L 150.34375 314.441406 C 147.011719 322.125 139.355469 327.503906 130.441406 327.503906 L 72.96875 327.503906 C 68.183594 327.503906 63.90625 325.339844 61.058594 321.9375 C 60.660156 321.460938 60.292969 320.960938 59.957031 320.441406 C 59.789062 320.1875 59.632812 319.925781 59.480469 319.664062 C 58.191406 317.402344 57.449219 314.785156 57.449219 311.996094 L 57.449219 300.644531 C 57.449219 293.105469 63.5625 286.996094 71.109375 286.996094 L 126.445312 286.996094 L 126.445312 201.757812 C 126.445312 195.789062 129.207031 190.152344 133.921875 186.488281 L 134.609375 185.953125 C 137.867188 183.421875 141.875 182.046875 146.003906 182.046875 C 150.261719 182.046875 154.460938 183.042969 158.265625 184.957031 L 173.359375 192.550781 C 173.949219 192.847656 174.285156 193.488281 174.195312 194.144531 L 173.5 199.09375 C 173.285156 200.621094 171.976562 201.757812 170.433594 201.757812 L 152.125 201.757812 L 152.125 286.996094 L 191.285156 300.054688 L 178.992188 270.652344 C 178.046875 268.390625 177.558594 265.964844 177.558594 263.515625 C 177.558594 257.980469 180.039062 252.738281 184.316406 249.222656 L 188.339844 245.914062 L 188.339844 249.328125 C 188.339844 255.472656 190.148438 261.480469 193.535156 266.609375 L 208.914062 289.882812 C 210.902344 292.894531 211.964844 296.425781 211.964844 300.039062 " fill-opacity="1" fill-rule="nonzero"/></g><g clip-path="url(#f04b8fcf49)"><path fill="#ffc836" d="M 208.914062 289.882812 L 193.535156 266.609375 C 190.148438 261.480469 188.339844 255.472656 188.339844 249.328125 L 188.339844 246 C 186.046875 250.277344 182.804688 257.472656 184.035156 262.105469 C 184.992188 265.699219 198.078125 289.585938 203.992188 301.835938 C 206.070312 306.136719 205.34375 311.054688 204.074219 315.785156 L 207.066406 312.546875 C 210.214844 309.140625 211.964844 304.675781 211.964844 300.039062 C 211.964844 296.425781 210.902344 292.894531 208.914062 289.882812 Z M 142.148438 206.859375 L 142.148438 305.148438 C 142.148438 312.152344 138.472656 318.648438 132.460938 322.257812 L 123.722656 327.503906 L 130.441406 327.503906 C 142.417969 327.503906 152.46875 317.804688 152.46875 305.839844 L 152.46875 201.757812 L 146.632812 201.757812 C 144.101562 202.085938 142.148438 204.242188 142.148438 206.859375 Z M 195.269531 200.519531 L 172.910156 200.519531 C 173.214844 200.113281 173.421875 199.628906 173.5 199.09375 L 173.683594 197.78125 L 195.269531 197.78125 L 189.074219 199.148438 L 195.269531 200.519531 " fill-opacity="1" fill-rule="nonzero"/></g><g clip-path="url(#1d6c4e09a8)"><path fill="#ffffff" d="M 206.035156 302.402344 L 211.78125 302.636719 C 211.855469 302.113281 211.90625 301.585938 211.933594 301.058594 C 210.039062 301.160156 208.03125 301.546875 206.035156 302.402344 Z M 189.28125 268.964844 L 193.527344 266.601562 C 193.261719 266.195312 193.007812 265.78125 192.757812 265.367188 C 191.503906 266.335938 190.304688 267.519531 189.28125 268.964844 Z M 209.640625 291.082031 C 207.226562 291.722656 204.632812 292.871094 202.351562 294.882812 L 210.394531 292.601562 C 210.164062 292.085938 209.914062 291.578125 209.640625 291.082031 Z M 189.535156 257.886719 C 188.203125 258.886719 186.929688 260.125 185.84375 261.652344 L 189.984375 259.347656 C 189.824219 258.863281 189.675781 258.375 189.535156 257.886719 Z M 198.019531 273.398438 C 196.464844 274.46875 194.964844 275.84375 193.71875 277.605469 L 198.894531 274.722656 Z M 203.78125 282.117188 C 201.761719 283.105469 199.714844 284.519531 198 286.550781 L 204.710938 283.523438 Z M 191.769531 300.949219 L 191.738281 300.84375 L 191.710938 300.769531 L 191.707031 300.753906 L 191.707031 300.75 L 191.703125 300.746094 C 191.613281 300.773438 191.90625 300.683594 191.503906 300.804688 C 191.101562 300.925781 191.390625 300.839844 191.300781 300.867188 L 191.300781 300.875 L 191.304688 300.90625 L 191.308594 300.949219 L 191.320312 301.035156 C 191.328125 301.089844 191.324219 301.148438 191.320312 301.203125 C 191.324219 301.316406 191.300781 301.425781 191.285156 301.53125 C 191.230469 301.742188 191.140625 301.9375 191.015625 302.109375 C 190.894531 302.28125 190.730469 302.417969 190.554688 302.519531 C 190.378906 302.625 190.183594 302.699219 189.988281 302.714844 C 189.789062 302.734375 189.59375 302.722656 189.402344 302.660156 L 189.328125 302.640625 L 189.058594 302.546875 L 188.691406 302.417969 L 187.222656 301.933594 C 186.238281 301.625 185.253906 301.320312 184.257812 301.046875 C 183.261719 300.769531 182.261719 300.511719 181.246094 300.300781 C 181.164062 300.285156 181.082031 300.328125 181.046875 300.402344 C 181.007812 300.492188 181.046875 300.597656 181.136719 300.640625 C 182.082031 301.066406 183.046875 301.441406 184.011719 301.796875 C 184.980469 302.160156 185.957031 302.488281 186.9375 302.816406 L 188.410156 303.28125 L 188.78125 303.394531 L 188.96875 303.449219 L 189.058594 303.476562 L 189.175781 303.503906 C 189.480469 303.589844 189.8125 303.589844 190.121094 303.53125 C 190.753906 303.414062 191.289062 303 191.589844 302.46875 C 191.734375 302.199219 191.824219 301.90625 191.847656 301.605469 C 191.84375 301.457031 191.851562 301.308594 191.820312 301.160156 C 191.808594 301.089844 191.796875 301.015625 191.769531 300.949219 Z M 126.710938 295.386719 C 126.707031 295.292969 126.628906 295.214844 126.535156 295.214844 C 126.4375 295.210938 126.355469 295.289062 126.355469 295.386719 L 126.28125 299.144531 C 126.265625 299.769531 126.289062 300.410156 126.195312 300.980469 C 126.105469 301.566406 125.90625 302.132812 125.609375 302.640625 C 125.03125 303.664062 124.058594 304.453125 122.949219 304.816406 C 122.386719 305.003906 121.820312 305.066406 121.214844 305.058594 L 119.332031 305.039062 C 114.320312 304.992188 109.304688 304.992188 104.289062 304.96875 C 99.273438 304.984375 94.257812 304.980469 89.246094 305.023438 L 81.722656 305.09375 C 79.214844 305.136719 76.707031 305.160156 74.203125 305.21875 C 74.089844 305.222656 74 305.3125 73.996094 305.425781 C 73.992188 305.542969 74.085938 305.636719 74.203125 305.640625 C 76.707031 305.703125 79.214844 305.726562 81.722656 305.769531 L 89.246094 305.839844 C 94.257812 305.878906 99.273438 305.878906 104.289062 305.894531 C 109.304688 305.867188 114.320312 305.871094 119.332031 305.820312 L 121.214844 305.800781 C 121.859375 305.800781 122.550781 305.710938 123.175781 305.484375 C 124.441406 305.039062 125.527344 304.121094 126.15625 302.945312 C 126.46875 302.359375 126.671875 301.714844 126.753906 301.058594 C 126.832031 300.390625 126.785156 299.769531 126.78125 299.144531 Z M 134.707031 322.984375 L 136.234375 326.722656 C 136.667969 326.605469 137.101562 326.472656 137.527344 326.328125 C 136.769531 325.15625 135.847656 324.019531 134.707031 322.984375 Z M 146.699219 320.382812 C 147.054688 320.003906 147.390625 319.605469 147.714844 319.203125 C 146.378906 318.015625 144.796875 316.945312 142.929688 316.164062 Z M 146.152344 307.550781 L 152.097656 309.757812 C 152.195312 309.226562 152.28125 308.6875 152.34375 308.144531 C 150.464844 307.625 148.378906 307.347656 146.152344 307.550781 Z M 152.46875 299.804688 L 152.46875 298.183594 C 150.441406 298.324219 148.277344 298.789062 146.15625 299.804688 Z M 152.46875 290.832031 L 152.46875 289.195312 C 150.382812 289.320312 148.148438 289.785156 145.957031 290.832031 Z M 152.46875 281.859375 L 152.46875 280.210938 C 150.328125 280.320312 148.019531 280.777344 145.757812 281.859375 Z M 152.46875 272.886719 L 152.46875 271.230469 C 150.273438 271.320312 147.890625 271.769531 145.558594 272.886719 Z M 152.46875 263.914062 L 152.46875 262.25 C 150.21875 262.316406 147.761719 262.761719 145.355469 263.914062 Z M 152.46875 254.941406 L 152.46875 253.269531 C 150.164062 253.316406 147.632812 253.753906 145.15625 254.941406 Z M 152.46875 245.96875 L 152.46875 244.296875 C 150.109375 244.320312 147.503906 244.746094 144.957031 245.96875 Z M 152.46875 236.992188 L 152.46875 235.324219 C 150.058594 235.324219 147.378906 235.742188 144.757812 236.992188 Z M 152.46875 228.019531 L 152.46875 226.347656 C 150.007812 226.328125 147.25 226.734375 144.558594 228.019531 Z M 144.359375 219.046875 L 152.46875 219.046875 L 152.46875 217.378906 C 149.957031 217.332031 147.125 217.726562 144.359375 219.046875 Z M 144.160156 210.074219 L 152.46875 210.074219 L 152.46875 208.410156 C 149.90625 208.339844 147 208.714844 144.160156 210.074219 Z M 162.199219 189.441406 C 159.8125 192.117188 156.25 192.121094 153.792969 189.453125 C 156.988281 188.4375 159.699219 188.667969 162.199219 189.441406 " fill-opacity="1" fill-rule="nonzero"/></g><g clip-path="url(#2fafb5548a)"><path fill="#54c6c3" d="M 169.082031 194.207031 C 170.050781 195.734375 171.800781 196.042969 173.207031 194.9375 Z M 158.894531 191.363281 C 159.238281 191.304688 159.578125 191.207031 159.914062 191.074219 C 159.828125 190.5625 159.632812 189.878906 159.183594 189.292969 C 159.039062 189.105469 158.878906 188.941406 158.710938 188.792969 C 158.171875 188.765625 157.621094 188.769531 157.054688 188.8125 C 157.15625 189.289062 157.355469 189.875 157.746094 190.386719 C 158.082031 190.824219 158.503906 191.140625 158.894531 191.363281 Z M 131.855469 277.242188 L 126.445312 277.242188 L 126.445312 293.34375 L 131.855469 293.34375 C 134.671875 293.34375 136.953125 291.0625 136.953125 288.246094 L 136.953125 282.339844 C 136.953125 279.527344 134.671875 277.242188 131.855469 277.242188 Z M 134.738281 254.792969 L 126.445312 254.792969 L 126.445312 270.890625 L 134.738281 270.890625 C 136.859375 270.890625 138.582031 269.171875 138.582031 267.050781 L 138.582031 258.632812 C 138.582031 256.511719 136.859375 254.792969 134.738281 254.792969 Z M 118.660156 305.429688 L 111.601562 305.429688 L 111.601562 311.363281 C 111.601562 313.484375 113.320312 315.203125 115.445312 315.203125 L 121.914062 315.203125 C 124.035156 315.203125 125.753906 313.484375 125.753906 311.363281 L 125.753906 303.011719 C 124.527344 304.839844 121.792969 305.726562 118.660156 305.429688 Z M 155.503906 295.863281 C 154.753906 297.84375 155.753906 300.0625 157.742188 300.8125 L 161.578125 302.261719 C 163.5625 303.011719 165.78125 302.011719 166.53125 300.03125 L 169.296875 292.722656 L 158.109375 288.992188 Z M 75.789062 308.816406 C 75.789062 310.9375 77.511719 312.65625 79.632812 312.65625 L 94.121094 312.65625 C 96.242188 312.65625 97.964844 310.9375 97.964844 308.816406 L 97.964844 305.429688 L 75.789062 305.429688 Z M 133.035156 247.039062 L 133.035156 232.5625 C 133.035156 230.441406 131.316406 228.722656 129.191406 228.722656 L 126.445312 228.722656 L 126.445312 250.878906 L 129.191406 250.878906 C 131.316406 250.878906 133.035156 249.160156 133.035156 247.039062 Z M 136.4375 221.632812 L 136.4375 207.15625 C 136.4375 205.035156 134.714844 203.316406 132.59375 203.316406 L 126.445312 203.316406 L 126.445312 225.472656 L 132.59375 225.472656 C 134.714844 225.472656 136.4375 223.753906 136.4375 221.632812 Z M 117.328125 298.070312 C 119.453125 298.070312 121.171875 296.351562 121.171875 294.230469 L 121.171875 286.996094 L 109.382812 286.996094 L 109.382812 294.230469 C 109.382812 296.351562 111.105469 298.070312 113.226562 298.070312 Z M 85.457031 286.996094 C 84.984375 287.632812 84.699219 288.421875 84.699219 289.28125 L 84.699219 290.980469 C 84.699219 293.101562 86.417969 294.820312 88.539062 294.820312 L 95.007812 294.820312 C 97.128906 294.820312 98.851562 293.101562 98.851562 290.980469 L 98.851562 289.28125 C 98.851562 288.421875 98.566406 287.632812 98.089844 286.996094 Z M 69.328125 287.113281 C 69.511719 287.566406 69.617188 288.0625 69.617188 288.578125 L 69.617188 297 C 69.617188 299.121094 67.898438 300.839844 65.773438 300.839844 L 59.308594 300.839844 C 58.636719 300.839844 58.003906 300.667969 57.457031 300.363281 C 57.59375 293.554688 62.714844 287.976562 69.328125 287.113281 " fill-opacity="1" fill-rule="nonzero"/></g><g clip-path="url(#084ffee97c)"><g clip-path="url(#cd598f529d)"><g clip-path="url(#2e7082a501)"><path fill="#3084b2" d="M 228.140625 252.089844 C 227.851562 254.8125 227.109375 257.402344 225.914062 259.859375 L 195.6875 266.714844 C 193.546875 265.011719 191.757812 262.996094 190.324219 260.667969 C 196.234375 257.863281 202.378906 255.734375 208.757812 254.289062 C 215.140625 252.84375 221.601562 252.109375 228.140625 252.089844 Z M 217.476562 241.15625 L 217.492188 241.222656 C 219.25 243.253906 221.1875 245.097656 223.304688 246.746094 C 223.402344 246.808594 223.460938 246.894531 223.488281 247.007812 C 223.511719 247.117188 223.496094 247.222656 223.433594 247.320312 C 223.375 247.402344 223.296875 247.457031 223.195312 247.476562 C 223.066406 247.503906 222.953125 247.476562 222.847656 247.398438 L 222.582031 247.183594 C 220.550781 245.574219 218.683594 243.789062 216.992188 241.828125 L 216.898438 241.722656 C 214.367188 238.789062 212.257812 235.582031 210.566406 232.097656 C 210.574219 237.550781 209.589844 242.816406 207.617188 247.898438 C 207.589844 247.960938 207.550781 248.015625 207.5 248.058594 C 207.449219 248.101562 207.386719 248.132812 207.320312 248.148438 C 207.253906 248.164062 207.1875 248.160156 207.121094 248.144531 C 207.054688 248.128906 206.996094 248.09375 206.945312 248.050781 C 203.003906 244.304688 199.871094 239.96875 197.554688 235.046875 C 197.554688 238.925781 197.054688 242.738281 196.058594 246.484375 C 195.378906 249.019531 194.460938 251.46875 193.300781 253.824219 L 193.152344 254.132812 C 193.09375 254.21875 193.011719 254.273438 192.910156 254.300781 C 192.804688 254.328125 192.707031 254.316406 192.613281 254.269531 C 192.519531 254.21875 192.453125 254.148438 192.414062 254.050781 C 192.375 253.953125 192.371094 253.851562 192.40625 253.753906 C 193.605469 251.351562 194.558594 248.855469 195.265625 246.261719 L 195.25 246.199219 C 191.46875 244.433594 188.003906 242.179688 184.859375 239.433594 C 186.546875 242.515625 187.832031 245.753906 188.714844 249.15625 C 189.597656 252.558594 190.046875 256.015625 190.066406 259.527344 C 195.988281 256.738281 202.144531 254.617188 208.527344 253.171875 C 214.914062 251.722656 221.378906 250.980469 227.925781 250.941406 C 226.425781 247.773438 225.335938 244.46875 224.65625 241.03125 C 223.976562 237.59375 223.730469 234.121094 223.910156 230.621094 C 222.261719 234.4375 220.117188 237.949219 217.476562 241.15625 Z M 226.160156 260.945312 L 195.933594 267.800781 C 195.488281 267.902344 195.074219 268.085938 194.703125 268.351562 C 194.328125 268.613281 194.015625 268.941406 193.769531 269.328125 C 193.523438 269.710938 193.363281 270.132812 193.28125 270.582031 C 193.199219 271.035156 193.207031 271.484375 193.300781 271.929688 C 193.402344 272.382812 193.589844 272.792969 193.855469 273.171875 C 194.121094 273.546875 194.449219 273.859375 194.839844 274.105469 C 195.230469 274.351562 195.652344 274.515625 196.109375 274.59375 C 196.5625 274.671875 197.015625 274.65625 197.464844 274.554688 L 227.691406 267.699219 C 228.140625 267.597656 228.554688 267.410156 228.929688 267.144531 C 229.304688 266.878906 229.617188 266.550781 229.863281 266.160156 C 230.109375 265.769531 230.269531 265.347656 230.347656 264.894531 C 230.425781 264.4375 230.417969 263.988281 230.316406 263.535156 C 230.210938 263.089844 230.023438 262.679688 229.757812 262.308594 C 229.488281 261.9375 229.160156 261.628906 228.769531 261.386719 C 228.382812 261.144531 227.960938 260.984375 227.507812 260.90625 C 227.058594 260.832031 226.605469 260.84375 226.160156 260.945312 Z M 210.117188 230.125 C 210.539062 230.027344 210.925781 229.855469 211.277344 229.609375 C 211.628906 229.359375 211.917969 229.054688 212.148438 228.6875 C 212.375 228.324219 212.527344 227.929688 212.601562 227.503906 C 212.671875 227.082031 212.660156 226.660156 212.566406 226.238281 C 212.472656 225.820312 212.300781 225.433594 212.050781 225.082031 C 211.800781 224.730469 211.496094 224.441406 211.132812 224.210938 C 210.765625 223.980469 210.371094 223.828125 209.949219 223.757812 C 209.523438 223.683594 209.101562 223.695312 208.683594 223.789062 C 208.261719 223.886719 207.878906 224.058594 207.527344 224.304688 C 207.175781 224.554688 206.882812 224.859375 206.652344 225.226562 C 206.425781 225.589844 206.273438 225.984375 206.199219 226.410156 C 206.128906 226.832031 206.140625 227.253906 206.234375 227.675781 C 206.332031 228.09375 206.503906 228.480469 206.75 228.832031 C 207 229.183594 207.304688 229.472656 207.671875 229.703125 C 208.035156 229.933594 208.429688 230.085938 208.851562 230.15625 C 209.277344 230.230469 209.699219 230.21875 210.117188 230.125 Z M 197.109375 233.074219 C 197.523438 232.96875 197.902344 232.789062 198.246094 232.53125 C 198.585938 232.277344 198.871094 231.964844 199.089844 231.597656 C 199.308594 231.230469 199.449219 230.835938 199.515625 230.410156 C 199.578125 229.988281 199.558594 229.570312 199.457031 229.152344 C 199.355469 228.738281 199.175781 228.355469 198.925781 228.011719 C 198.671875 227.667969 198.363281 227.382812 197.996094 227.160156 C 197.632812 226.933594 197.238281 226.789062 196.816406 226.722656 C 196.394531 226.65625 195.972656 226.671875 195.558594 226.769531 C 195.140625 226.867188 194.757812 227.039062 194.410156 227.289062 C 194.0625 227.539062 193.777344 227.847656 193.550781 228.207031 C 193.324219 228.570312 193.175781 228.964844 193.101562 229.386719 C 193.03125 229.808594 193.042969 230.226562 193.136719 230.644531 C 193.234375 231.074219 193.410156 231.464844 193.667969 231.820312 C 193.921875 232.175781 194.238281 232.46875 194.609375 232.699219 C 194.984375 232.925781 195.386719 233.074219 195.820312 233.140625 C 196.253906 233.203125 196.683594 233.183594 197.109375 233.074219 Z M 185.582031 236.179688 C 185.488281 235.757812 185.320312 235.371094 185.078125 235.015625 C 184.832031 234.664062 184.527344 234.367188 184.167969 234.136719 C 183.804688 233.902344 183.414062 233.746094 182.988281 233.671875 C 182.566406 233.59375 182.144531 233.601562 181.722656 233.691406 C 181.300781 233.78125 180.914062 233.949219 180.558594 234.195312 C 180.207031 234.441406 179.914062 234.742188 179.679688 235.105469 C 179.445312 235.46875 179.292969 235.859375 179.214844 236.285156 C 179.136719 236.707031 179.144531 237.128906 179.234375 237.550781 C 179.324219 237.972656 179.492188 238.359375 179.738281 238.710938 C 179.984375 239.066406 180.289062 239.359375 180.648438 239.59375 C 181.011719 239.828125 181.402344 239.980469 181.828125 240.058594 C 182.25 240.136719 182.671875 240.128906 183.09375 240.039062 C 183.511719 239.945312 183.894531 239.773438 184.242188 239.527344 C 184.589844 239.28125 184.878906 238.976562 185.109375 238.617188 C 185.335938 238.257812 185.488281 237.867188 185.5625 237.445312 C 185.636719 237.023438 185.628906 236.605469 185.539062 236.1875 Z M 224.382812 224.050781 C 223.960938 224.144531 223.574219 224.316406 223.226562 224.566406 C 222.875 224.8125 222.582031 225.121094 222.351562 225.484375 C 222.125 225.847656 221.972656 226.242188 221.898438 226.667969 C 221.828125 227.09375 221.839844 227.515625 221.933594 227.933594 C 222.027344 228.355469 222.199219 228.738281 222.449219 229.089844 C 222.699219 229.441406 223.003906 229.734375 223.367188 229.964844 C 223.734375 230.191406 224.128906 230.34375 224.550781 230.417969 C 224.976562 230.488281 225.398438 230.476562 225.816406 230.382812 C 226.238281 230.289062 226.625 230.117188 226.976562 229.867188 C 227.328125 229.617188 227.617188 229.3125 227.847656 228.949219 C 228.074219 228.582031 228.226562 228.1875 228.300781 227.765625 C 228.371094 227.339844 228.359375 226.917969 228.265625 226.5 C 228.171875 226.074219 227.996094 225.683594 227.746094 225.328125 C 227.496094 224.976562 227.183594 224.683594 226.8125 224.453125 C 226.445312 224.222656 226.046875 224.074219 225.617188 224.007812 C 225.1875 223.9375 224.761719 223.957031 224.339844 224.058594 Z M 224.382812 224.050781 " fill-opacity="1" fill-rule="nonzero"/></g></g></g></svg>